<svg xmlns="http://www.w3.org/2000/svg" xmlns:xlink="http://www.w3.org/1999/xlink" viewBox="0 0 600.08 240.57"><defs><style>.cls-1,.cls-14,.cls-15,.cls-16{fill:none;}.cls-2{clip-path:url(#clip-path);}.cls-3{fill:#dcd0fe;}.cls-4{fill:#6242ba;}.cls-5{fill:#bba4ff;}.cls-6{fill:#f3a9b8;}.cls-7{fill:#ea4272;}.cls-8{fill:#e87d91;}.cls-9{fill:#4f2caf;}.cls-10{fill:#dfd2fd;}.cls-11{fill:#d7c5ff;}.cls-12{fill:#9c89e5;}.cls-13{fill:#31193b;}.cls-14{stroke:#31193b;}.cls-14,.cls-15,.cls-16{stroke-miterlimit:10;}.cls-14,.cls-16{stroke-width:0.25px;}.cls-15{stroke:#f96c96;stroke-width:0.52px;}.cls-16{stroke:#bba4ff;}.cls-17{fill:#fff;}</style><clipPath id="clip-path" transform="translate(0 -189.8)"><rect class="cls-1" x="15.07" width="596.25" height="372.14"/></clipPath></defs><title>Recurso 1</title><g id="Capa_2" data-name="Capa 2"><g id="OBJECTS"><g class="cls-2"><path class="cls-1" d="M72.55,324.35l2,3.29c-.53-1.06-1.07-2.16-1.6-3.28Z" transform="translate(0 -189.8)"/><path class="cls-3" d="M32.93,351.46c4.12,10.09,10.22,19.05,13.84,22.93l34.1-.23L66.1,351.46Z" transform="translate(0 -189.8)"/><path class="cls-3" d="M50,326.77l-20.52-1.36c-2.2,7.76-.18,17.18,3.32,25.8H65.94Z" transform="translate(0 -189.8)"/><path class="cls-3" d="M120.28,373.89l14.91-.1s-1.17-7.41-3.72-17.93l-13.15,13.65Z" transform="translate(0 -189.8)"/><path class="cls-3" d="M80.46,285.6c-10,1.48-13.68,7.2-14,14.49l21.18,1.53Z" transform="translate(0 -189.8)"/><polygon class="cls-3" points="102.96 184.21 120.01 184.1 112.26 166.79 92.29 166.79 102.96 184.21"/><path class="cls-3" d="M118.21,369.26l13.19-13.69a229.93,229.93,0,0,0-11-34.36l-15,19.31Z" transform="translate(0 -189.8)"/><polygon class="cls-3" points="84.82 155.06 73.94 173.26 81.16 184.36 102.67 184.22 84.82 155.06"/><path class="cls-3" d="M105.22,340.26l15-19.31c-3.93-9.23-8.71-17.94-14.41-24.44L94.06,315.35Z" transform="translate(0 -189.8)"/><path class="cls-3" d="M87.75,301.88l-21.3-1.54c-.25,7.3,2.81,16.1,6.39,23.77l25.24.84Z" transform="translate(0 -189.8)"/><path class="cls-3" d="M105.68,296.31c-6.33-7.14-13.8-11.58-22.51-11-.86.06-1.68.15-2.46.26l13.22,29.51Z" transform="translate(0 -189.8)"/><path class="cls-3" d="M73.79,362.82l10.88-18.2L73.74,326.76a55.38,55.38,0,0,0-10.21-10.55l-6,21.65Z" transform="translate(0 -189.8)"/><path class="cls-3" d="M74.56,327.64l17.58,28.7h20L98.2,325.2,73,324.36C73.49,325.48,74,326.58,74.56,327.64Z" transform="translate(0 -189.8)"/><path class="cls-3" d="M63.32,316.05c-6.4-4.79-14-7.24-22.26-3.54l16.31,25.07Z" transform="translate(0 -189.8)"/><path class="cls-3" d="M40.83,312.62c-.42.19-.84.39-1.26.62a19.48,19.48,0,0,0-10,11.92l20.28,1.35Z" transform="translate(0 -189.8)"/><path class="cls-4" d="M73.94,363.06l0,.06-.21-.13.1-.17-16.24-25,0,.06-.24-.07.08-.27L41.06,312.51l-.23.11,9,13.89.25,0v.24H50l15.91,24.44h.23v.25H66.1l14.77,22.7h.29Z" transform="translate(0 -189.8)"/><path class="cls-4" d="M118.26,369.57l-.18-.18.13-.13-12.88-28.74,0,.06-.2-.15.13-.17L94.06,315.35l0,.06-.21-.14.12-.2L80.71,285.56l-.25,0,7.18,16,.2,0v.25h-.08L98.08,325h.2v.25H98.2l13.94,31.14h.2v.25h-.08L120,373.9h.27l-2-4.38Z" transform="translate(0 -189.8)"/><path class="cls-4" d="M84.71,344.55l.21.13-.1.18L102.67,374H103L92.29,356.59h-.22v-.25h.07l-17.58-28.7c.14.26.27.53.4.78-.39-.55-.8-1.1-1.22-1.66l10.93,17.86Z" transform="translate(0 -189.8)"/><path class="cls-4" d="M49.86,326.51l-20.28-1.35a2.33,2.33,0,0,1-.07.25L50,326.77Z" transform="translate(0 -189.8)"/><polygon class="cls-4" points="50.1 136.98 50.11 136.73 49.86 136.71 50.03 136.97 50.1 136.98"/><path class="cls-4" d="M57.55,337.86l6-21.65-.21-.16-6,21.53Z" transform="translate(0 -189.8)"/><polygon class="cls-4" points="57.29 148.05 57.53 148.12 57.55 148.06 57.37 147.78 57.29 148.05"/><path class="cls-4" d="M65.94,351.21H32.83a1.86,1.86,0,0,0,.1.25H66.1Z" transform="translate(0 -189.8)"/><polygon class="cls-4" points="66.17 161.67 66.17 161.42 65.94 161.42 66.1 161.67 66.17 161.67"/><polygon class="cls-4" points="84.67 154.82 73.79 173.03 73.94 173.26 84.82 155.06 84.67 154.82"/><polygon class="cls-4" points="73.69 173.2 73.9 173.33 73.94 173.26 73.79 173.03 73.69 173.2"/><polygon class="cls-4" points="84.92 154.88 84.71 154.75 84.67 154.82 84.82 155.06 84.92 154.88"/><path class="cls-4" d="M87.64,301.62l-21.18-1.53a2.18,2.18,0,0,0,0,.25l21.3,1.54Z" transform="translate(0 -189.8)"/><polygon class="cls-4" points="87.83 112.09 87.84 111.84 87.64 111.83 87.75 112.09 87.83 112.09"/><path class="cls-4" d="M94.06,315.35l11.79-18.84c-.06-.07-.12-.13-.17-.2L93.93,315.07Z" transform="translate(0 -189.8)"/><polygon class="cls-4" points="93.81 125.48 94.02 125.61 94.06 125.55 93.93 125.28 93.81 125.48"/><path class="cls-4" d="M98.2,325.2l-.12-.25-25.24-.84.12.25Z" transform="translate(0 -189.8)"/><polygon class="cls-4" points="98.27 135.41 98.28 135.16 98.08 135.15 98.2 135.41 98.27 135.41"/><path class="cls-4" d="M105.33,340.52l15-19.31a2,2,0,0,1-.11-.26l-15,19.31Z" transform="translate(0 -189.8)"/><polygon class="cls-4" points="105.09 150.63 105.29 150.79 105.33 150.73 105.22 150.47 105.09 150.63"/><polygon class="cls-4" points="92.29 166.79 112.26 166.79 112.14 166.54 92.14 166.54 92.29 166.79"/><polygon class="cls-4" points="112.34 166.79 112.34 166.54 112.14 166.54 112.26 166.79 112.34 166.79"/><polygon class="cls-4" points="92.07 166.54 92.07 166.79 92.29 166.79 92.14 166.54 92.07 166.54"/><polygon class="cls-4" points="487.48 113.88 487.53 110.57 486.45 113.88 487.48 113.88"/><polygon class="cls-1" points="113.47 197.06 113.43 196.39 113.29 196.39 113.47 197.06"/><path class="cls-4" d="M110.52,320.37l3.16,65.8,1.84-.08S120.4,321.42,110.52,320.37Z" transform="translate(0 -189.8)"/><path class="cls-4" d="M113.43,386.18l-3.17-65.82h-.09c-4.84.21-4.53,14.6-2.84,29.87-3.27-17.76-7.81-35.29-12.85-34.36l18.81,70.33Z" transform="translate(0 -189.8)"/><path class="cls-4" d="M109.89,385.85l0,0,.24.64,1.92-.43L78,328.26C71,334.94,109.89,385.85,109.89,385.85Z" transform="translate(0 -189.8)"/><path class="cls-4" d="M112.62,385.92l.4.28h0L94.24,315.93c-5.3,1.64,0,22.79,5.93,41.51C92.6,341.62,83.36,325.26,78.5,327.9a2.11,2.11,0,0,0-.29.2L112.35,386Z" transform="translate(0 -189.8)"/><path class="cls-5" d="M78,328.26l.19-.16-.94-1.6" transform="translate(0 -189.8)"/><path class="cls-5" d="M78.21,328.1l-.19.16L112.1,386l.25-.06Z" transform="translate(0 -189.8)"/><path class="cls-5" d="M113.29,386.19,94.48,315.86H94.4l-.16.06L113,386.2Z" transform="translate(0 -189.8)"/><path class="cls-5" d="M110.26,320.36l3.17,65.82h.25l-3.16-65.8Z" transform="translate(0 -189.8)"/><path class="cls-5" d="M101.54,274.75c-16.7,3.82,24.29,106.19,24.29,106.19l.08,0c.07.73.1,1.13.1,1.13l3,.16L102.13,274.68C101.94,274.7,101.74,274.71,101.54,274.75Z" transform="translate(0 -189.8)"/><path class="cls-5" d="M130.14,382.27l.51.61.56.13,1-120.36c-9.42-.42-10.31,36-9.23,68.74-4.86-27.63-12-56.76-20.56-56.73l26.86,107.56Z" transform="translate(0 -189.8)"/><path class="cls-5" d="M132.33,383.27l23.16-106.43-.18-.06c-7.79-1.81-13.69,21.23-17.75,46.3,2.65-29.62,3.2-59.43-5.14-60.39l-1,120.38Z" transform="translate(0 -189.8)"/><path class="cls-5" d="M155.73,276.92,132.58,383.33l2.1.49S171.33,282.47,155.73,276.92Z" transform="translate(0 -189.8)"/><path class="cls-4" d="M131.46,383.07l1-120.38a1.7,1.7,0,0,0-.22,0h0l-1,120.36Z" transform="translate(0 -189.8)"/><path class="cls-4" d="M102.38,274.66l-.25,0L129,382.21h.26Z" transform="translate(0 -189.8)"/><path class="cls-4" d="M155.49,276.84,132.33,383.27l.25.06,23.15-106.41Z" transform="translate(0 -189.8)"/><polygon class="cls-5" points="487.53 110.57 487.48 113.88 487.73 113.88 487.79 109.76 487.53 110.57"/><path class="cls-4" d="M514.11,286.68l-26.32,81-.07,4.12h1.75s0-.32.13-.9l.07,0S525.88,292.41,514.11,286.68Z" transform="translate(0 -189.8)"/><path class="cls-4" d="M482.43,372.82l2.68-.48-16-86C458.25,293.38,482.43,372.82,482.43,372.82Z" transform="translate(0 -189.8)"/><path class="cls-4" d="M485.71,372.24l.44-.48h0l1.35-4.17,1.53-92.07c-6.56.91-7.32,24.65-6.43,48.33-2.23-20.33-6-39.1-12.36-38a3.14,3.14,0,0,0-.9.33l16,86.09Z" transform="translate(0 -189.8)"/><path class="cls-4" d="M513.88,286.59a2.15,2.15,0,0,0-.27-.1c-7.08-2-14.34,21.91-19.56,44.66,2.23-26.3,3-55.67-4.59-55.67h-.14l-1.51,91.29Z" transform="translate(0 -189.8)"/><path class="cls-5" d="M469.15,286.33l.23-.12" transform="translate(0 -189.8)"/><path class="cls-5" d="M469.38,286.21l-.23.12,16,86,.24,0Z" transform="translate(0 -189.8)"/><path class="cls-5" d="M487.81,366.78l1.51-91.29-.25,0-1.53,92.07Z" transform="translate(0 -189.8)"/><path class="cls-5" d="M487.79,367.64l26.32-81-.23-.09-26.07,80.19Z" transform="translate(0 -189.8)"/><path class="cls-1" d="M551,320.35a85.07,85.07,0,0,1-5.36,7.21c1.06-1.27,2.1-2.48,3.13-3.65l2.62-3.63Z" transform="translate(0 -189.8)"/><path class="cls-1" d="M554,317.1l-3.59,5c1.36-1.51,2.7-2.94,4-4.27Z" transform="translate(0 -189.8)"/><polygon class="cls-3" points="526.78 164.97 538.48 181.13 553.09 162.77 541 145.3 526.78 164.97"/><path class="cls-3" d="M551,320.35l-22.53,4.29-8.6,21.14,13.94-1.2,15-20.67c-1,1.17-2.07,2.38-3.13,3.65A85.07,85.07,0,0,0,551,320.35Z" transform="translate(0 -189.8)"/><path class="cls-3" d="M580,318.81l-8.92-14.62c-4.81,2.81-10.27,7.14-16.44,13.43l11.18,19Z" transform="translate(0 -189.8)"/><path class="cls-3" d="M550.43,322.07l-9.27,12.81,12.1,17.48,12.37-15.53-11.2-19C553.13,319.13,551.79,320.56,550.43,322.07Z" transform="translate(0 -189.8)"/><path class="cls-3" d="M599.81,314.26a18.67,18.67,0,0,0-6.63-11.63l-7.66,9.62Z" transform="translate(0 -189.8)"/><path class="cls-3" d="M572.81,328.21l23.53,4.48c2.59-6,3.74-11.37,3.74-15.31a19.19,19.19,0,0,0-.23-2.86l-14.51-2Z" transform="translate(0 -189.8)"/><path class="cls-3" d="M593,302.49c-4.67-3.41-11.78-4.17-21.71,1.57l8.87,14.55Z" transform="translate(0 -189.8)"/><path class="cls-3" d="M552.28,265.46c-4.19-1.19-9.57-.64-16.15,2.19a26.63,26.63,0,0,0-7.74,5.26l14.37,16Z" transform="translate(0 -189.8)"/><path class="cls-3" d="M545.85,362.07l23.85,4.09A101.22,101.22,0,0,0,585.09,351l-26.49-4.94Z" transform="translate(0 -189.8)"/><path class="cls-3" d="M523.58,336.05l-16.41-16.66c-2.48,10.46-4.23,21-5.46,30.21l12.71,9Z" transform="translate(0 -189.8)"/><path class="cls-3" d="M501.68,349.88c-2.09,15.74-2.62,27.37-2.62,27.37h7.77l7.49-18.44Z" transform="translate(0 -189.8)"/><polygon class="cls-3" points="519.79 156.24 507.1 187.45 510.21 187.45 533.64 155.05 519.79 156.24"/><path class="cls-3" d="M562,275.63c-1.63-5.05-4.78-8.68-9.46-10.1l-4.74,11.67Z" transform="translate(0 -189.8)"/><path class="cls-3" d="M542.66,289.12l-14.45-16c-5.06,4.89-9.27,11.94-12.75,20.11l17.65,19.41Z" transform="translate(0 -189.8)"/><path class="cls-3" d="M533,312.85l-17.66-19.4a164.74,164.74,0,0,0-8.11,25.65l16.44,16.7Z" transform="translate(0 -189.8)"/><path class="cls-3" d="M528.6,324.36l22.61-4.3a76,76,0,0,0,10.52-23.49l-23.34,3.73Z" transform="translate(0 -189.8)"/><polygon class="cls-3" points="526.62 165.18 510.51 187.45 533.44 187.45 538.31 181.33 526.62 165.18"/><path class="cls-3" d="M533.76,377.25h19.35a120.29,120.29,0,0,0,16.33-10.88l-23.77-4.08Z" transform="translate(0 -189.8)"/><path class="cls-3" d="M538.5,300l23.3-3.72c1.87-7.8,2-14.94.26-20.44l-14.39,1.6Z" transform="translate(0 -189.8)"/><path class="cls-3" d="M572.63,328.43l-13.85,17.4,26.48,4.94a78.11,78.11,0,0,0,11-17.85Z" transform="translate(0 -189.8)"/><path class="cls-4" d="M519.71,346l0-.25h.2l8.6-21.14h-.07l0-.24.23-.05,9.79-24.06h-.07l0-.25.22,0,9.17-22.56h-.07l0-.24.21,0,4.74-11.67-.24-.07-9.52,23.41.14.14-.19.17-.05-.06-9.55,23.48.14.14-.19.17,0-.06-9.33,22.95.13.13-.17.18-.06-.06-9.16,22.52.13.1-.15.2-.08-.06-7.49,18.44h.27L519.79,346Z" transform="translate(0 -189.8)"/><path class="cls-4" d="M545.6,362.28l0-.25.21,0,12.75-16h-.07l0-.25.21,0,13.85-17.4h-.07l0-.24.21,0,12.53-15.73h-.07l0-.25.22,0,7.66-9.62-.2-.14-12.84,16.12.09.15-.21.13,0-.08-14.18,17.81.1.16-.22.12,0-.07-12.37,15.53.09.14-.2.14-.06-.07-14.61,18.35.09.14-.2.14-.06-.07-4.87,6.12h.32l11.91-15Z" transform="translate(0 -189.8)"/><path class="cls-4" d="M526.52,354.84l.2-.15.06.08L541,335.09l-.1-.14.21-.14,0,.07,9.27-12.81c-.54.6-1.09,1.21-1.64,1.84l-15,20.67h.06l0,.25-.27,0-23.43,32.4h.31L526.62,355Z" transform="translate(0 -189.8)"/><polygon class="cls-4" points="526.62 165.18 538.31 181.33 538.48 181.13 526.78 164.97 526.62 165.18"/><polygon class="cls-4" points="538.37 181.41 538.57 181.26 538.48 181.13 538.31 181.33 538.37 181.41"/><polygon class="cls-4" points="526.72 164.9 526.52 165.04 526.62 165.18 526.78 164.97 526.72 164.9"/><polygon class="cls-4" points="541 145.3 553.09 162.77 553.26 162.57 541.16 145.08 541 145.3"/><polygon class="cls-4" points="553.15 162.85 553.35 162.71 553.26 162.57 553.09 162.77 553.15 162.85"/><polygon class="cls-4" points="541.11 145.01 540.9 145.15 541 145.3 541.16 145.08 541.11 145.01"/><path class="cls-4" d="M565.63,336.83l.16-.21-11.18-19-.18.18Z" transform="translate(0 -189.8)"/><polygon class="cls-4" points="565.67 147.11 565.88 146.98 565.79 146.82 565.63 147.03 565.67 147.11"/><path class="cls-4" d="M580.14,318.61l-8.87-14.55-.22.13L580,318.81Z" transform="translate(0 -189.8)"/><polygon class="cls-4" points="580.02 129.09 580.23 128.96 580.14 128.81 579.98 129.02 580.02 129.09"/><path class="cls-4" d="M585.34,312.48l14.51,2a2.34,2.34,0,0,1,0-.26l-14.29-2Z" transform="translate(0 -189.8)"/><polygon class="cls-4" points="585.3 122.42 585.27 122.67 585.34 122.68 585.52 122.45 585.3 122.42"/><path class="cls-4" d="M572.63,328.43l23.62,4.49.09-.23-23.53-4.48Z" transform="translate(0 -189.8)"/><polygon class="cls-4" points="572.6 138.38 572.56 138.62 572.63 138.64 572.81 138.42 572.6 138.38"/><path class="cls-4" d="M558.6,346.05,585.09,351l.17-.22-26.48-4.94Z" transform="translate(0 -189.8)"/><polygon class="cls-4" points="558.53 156.24 558.6 156.26 558.78 156.04 558.57 156 558.53 156.24"/><path class="cls-4" d="M545.67,362.29l23.77,4.08.26-.21-23.85-4.09Z" transform="translate(0 -189.8)"/><polygon class="cls-4" points="545.6 172.48 545.67 172.49 545.85 172.27 545.64 172.24 545.6 172.48"/><polygon class="cls-4" points="519.79 156.24 533.64 155.05 533.83 154.79 519.89 155.98 519.79 156.24"/><polygon class="cls-4" points="519.69 156 519.71 156.25 519.79 156.24 519.89 155.98 519.69 156"/><polygon class="cls-4" points="533.91 155.03 533.89 154.78 533.83 154.79 533.64 155.05 533.91 155.03"/><path class="cls-4" d="M514.42,358.57l-12.71-9,0,.28,12.64,8.93Z" transform="translate(0 -189.8)"/><polygon class="cls-4" points="514.4 169.07 514.55 168.87 514.42 168.78 514.32 169.02 514.4 169.07"/><path class="cls-4" d="M523.68,335.8l-16.44-16.7c0,.1-.05.19-.07.29l16.41,16.66Z" transform="translate(0 -189.8)"/><polygon class="cls-4" points="523.64 146.31 523.81 146.14 523.68 146 523.58 146.25 523.64 146.31"/><path class="cls-4" d="M551.41,320.28l.21-.29-.41.07-.19.29Z" transform="translate(0 -189.8)"/><path class="cls-4" d="M528.49,324.64,551,320.35l.19-.29-22.61,4.3Z" transform="translate(0 -189.8)"/><polygon class="cls-4" points="528.38 134.61 528.42 134.86 528.49 134.84 528.6 134.57 528.38 134.61"/><path class="cls-4" d="M533.11,312.6l-17.65-19.41-.11.26L533,312.85Z" transform="translate(0 -189.8)"/><polygon class="cls-4" points="533.06 123.11 533.25 122.95 533.12 122.8 533.01 123.06 533.06 123.11"/><path class="cls-4" d="M538.39,300.3l23.34-3.73c0-.09,0-.18.07-.26L538.5,300Z" transform="translate(0 -189.8)"/><polygon class="cls-4" points="538.28 110.26 538.32 110.51 538.39 110.5 538.5 110.23 538.28 110.26"/><path class="cls-4" d="M542.76,288.87l-14.37-16-.18.17,14.45,16Z" transform="translate(0 -189.8)"/><polygon class="cls-4" points="542.71 99.38 542.9 99.22 542.76 99.07 542.66 99.33 542.71 99.38"/><path class="cls-5" d="M527.59,325.65a2,2,0,0,0-.79-.78c-4.37-2.37-12.69,12.34-19.49,26.57,5.23-16.62,10-35.37,5.51-37.28L496.5,375Z" transform="translate(0 -189.8)"/><path class="cls-5" d="M512.59,314.08a.29.29,0,0,0-.1,0c-4.56-1-8.67,14.84-11.63,30.9,1.53-13.74,1.8-26.68-2.55-26.87h-.06l-2.06,57.13Z" transform="translate(0 -189.8)"/><polygon class="cls-5" points="495.36 187.5 495.63 187.51 495.83 186.75 495.36 187.5"/><path class="cls-5" d="M498,318.1c-8.89,1-4.5,59.11-4.5,59.11l1.57.07.84-1.33Z" transform="translate(0 -189.8)"/><path class="cls-5" d="M496.15,376.32l0,.74,2.19.49.21-.57,0,0s32.73-42.84,29.17-51.09l-31.45,49.93Z" transform="translate(0 -189.8)"/><path class="cls-4" d="M496.5,375l16.32-60.86-.23-.08-16.4,61.13,2.06-57.13-.25,0L495.91,376Z" transform="translate(0 -189.8)"/><polygon class="cls-4" points="496.28 186.04 495.83 186.75 495.63 187.51 495.75 187.51 496.11 187.26 496.12 187.27 496.15 186.52 496.28 186.04"/><polygon class="cls-4" points="495.9 186.49 495.91 186.15 495.07 187.49 495.36 187.5 495.83 186.75 495.9 186.49"/><path class="cls-4" d="M496.5,375l-.22.82,31.45-49.93a2.15,2.15,0,0,0-.14-.26Z" transform="translate(0 -189.8)"/><polygon class="cls-4" points="495.9 186.49 495.83 186.75 496.28 186.04 496.5 185.22 495.91 186.15 495.9 186.49"/><polygon class="cls-4" points="118.26 179.77 118.32 179.71 118.21 179.46 118.08 179.6 118.26 179.77"/><path class="cls-4" d="M501.68,349.88l0-.28" transform="translate(0 -189.8)"/><path class="cls-4" d="M528.21,273.08l.18-.17" transform="translate(0 -189.8)"/><path class="cls-4" d="M547.67,277.47l14.39-1.6a2.25,2.25,0,0,1-.08-.24l-14.2,1.57Z" transform="translate(0 -189.8)"/><polygon class="cls-4" points="547.57 87.43 547.6 87.68 547.67 87.67 547.78 87.41 547.57 87.43"/><path class="cls-6" d="M481.79,199.12s-3-4.79-2.43-5.63c.51-.66,2.14,2.44,2.14,2.44s-.53-3.26-1-4.84,1.5-2.08,3.12.65.95,7.38.95,7.38Z" transform="translate(0 -189.8)"/><path class="cls-6" d="M350.43,248.36s-3.62-1.14-4.08,4.29c0,3.11,1,3,1,3l3.88-3Z" transform="translate(0 -189.8)"/><polygon class="cls-7" points="248.72 119.87 241.55 240.56 248.8 240.56 267.67 138.13 278.75 240.56 285.55 240.56 285.94 119.87 248.72 119.87"/><path class="cls-8" d="M267.6,242.51h0a5.76,5.76,0,0,1,5.76,5.76v9.59a0,0,0,0,1,0,0H261.85a0,0,0,0,1,0,0v-9.59a5.76,5.76,0,0,1,5.76-5.76Z" transform="translate(535.21 310.57) rotate(-180)"/><path class="cls-6" d="M258.38,231.52a2.69,2.69,0,0,0-3,2.87c0,3.2,3.93,3.52,3.93,3.52Z" transform="translate(0 -189.8)"/><path class="cls-6" d="M276.83,231.52a2.69,2.69,0,0,1,3,2.87c0,3.2-3.92,3.52-3.92,3.52Z" transform="translate(0 -189.8)"/><rect class="cls-6" x="258.23" y="220.58" width="18.75" height="26.14" rx="9.37" transform="translate(535.21 277.5) rotate(-180)"/><polygon class="cls-9" points="200.15 124.57 193.97 240.56 203.71 240.56 221.23 148.15 232.49 240.56 242.24 240.56 242.87 124.57 200.15 124.57"/><path class="cls-10" d="M241.49,269.63c0-26.23-13.1-22.4-26.21-22.4s-12.57,22.4-12.57,22.4l-3.82,49.31c15.06,5.1,30,5.22,44.68,0Z" transform="translate(0 -189.8)"/><line class="cls-6" x1="213.75" y1="45.17" x2="212.91" y2="39.03"/><path class="cls-8" d="M221.77,251.75h0c-3.05,0-5.53-.08-5.53-3.14v-9.22H227.3v9.22C227.3,251.67,224.83,251.75,221.77,251.75Z" transform="translate(0 -189.8)"/><rect class="cls-6" x="212.76" y="218.31" width="18.02" height="25.12" rx="9.01" transform="translate(443.54 271.96) rotate(-180)"/><path class="cls-5" d="M474.18,269.63c0-26.23-13.09-22.4-26.21-22.4s-12.56,22.4-12.56,22.4l-2.56,44.74a55.59,55.59,0,0,0,42.72,0Z" transform="translate(0 -189.8)"/><path class="cls-7" d="M432.85,314.37l-6.19,116h9.74l18.13-98.44,10.66,98.44h9.74l.64-116A61.55,61.55,0,0,1,432.85,314.37Z" transform="translate(0 -189.8)"/><path class="cls-6" d="M445.61,228.83a2.59,2.59,0,0,0-2.93,2.76c0,3.07,3.77,3.38,3.77,3.38Z" transform="translate(0 -189.8)"/><path class="cls-6" d="M463.33,228.83a2.59,2.59,0,0,1,2.93,2.76c0,3.07-3.77,3.38-3.77,3.38Z" transform="translate(0 -189.8)"/><path class="cls-8" d="M454.47,252.08h0c-3.06,0-5.53-.41-5.53-3.47v-9.22H460v9.22C460,251.67,457.52,252.08,454.47,252.08Z" transform="translate(0 -189.8)"/><rect class="cls-6" x="445.46" y="218.31" width="18.02" height="25.12" rx="9.01" transform="translate(908.94 271.96) rotate(-180)"/><path class="cls-11" d="M358.76,250.19s-13-.85-15.28,13.65c-2.79,17.48,7.28,19.48-2.79,45.83H377.9s-8.25-9.57-1.67-31.44S369,250.19,358.76,250.19Z" transform="translate(0 -189.8)"/><path class="cls-8" d="M359.57,255.79h0c-3.18,0-5.76-.51-5.76-3.69v-9.59h11.52v9.59C365.33,255.28,362.75,255.79,359.57,255.79Z" transform="translate(0 -189.8)"/><line class="cls-6" x1="351.23" y1="48.11" x2="350.35" y2="41.72"/><path class="cls-6" d="M359.57,246.72h0a9.4,9.4,0,0,1-9.37-9.37V230a9.4,9.4,0,0,1,9.37-9.37h0a9.4,9.4,0,0,1,9.37,9.37v7.4A9.4,9.4,0,0,1,359.57,246.72Z" transform="translate(0 -189.8)"/><polygon class="cls-6" points="153.84 126.53 147.06 240.56 153.91 240.56 171.73 143.78 182.21 240.56 188.63 240.56 189 126.53 153.84 126.53"/><path class="cls-7" d="M170.91,260.12s-12.26-.8-14.44,12.91c-2.63,16.51,6.88,18.4-2.63,43.29H189s-7.8-9-1.58-29.69S180.61,260.12,170.91,260.12Z" transform="translate(0 -189.8)"/><path class="cls-8" d="M171.67,267.38h0a5.45,5.45,0,0,1-5.44-5.44v-9.07h10.88v9.07A5.44,5.44,0,0,1,171.67,267.38Z" transform="translate(0 -189.8)"/><path class="cls-6" d="M163,242.49a2.54,2.54,0,0,0-2.88,2.71c0,3,3.71,3.33,3.71,3.33Z" transform="translate(0 -189.8)"/><path class="cls-6" d="M180.39,242.49a2.54,2.54,0,0,1,2.88,2.71c0,3-3.71,3.33-3.71,3.33Z" transform="translate(0 -189.8)"/><path class="cls-6" d="M171.67,256.85h0a8.87,8.87,0,0,1-8.85-8.86v-7a8.88,8.88,0,0,1,8.85-8.86h0a8.89,8.89,0,0,1,8.86,8.86v7A8.88,8.88,0,0,1,171.67,256.85Z" transform="translate(0 -189.8)"/><polygon class="cls-6" points="385.3 119.27 377.9 240.56 385.38 240.56 404.82 137.63 416.25 240.56 423.25 240.56 423.65 119.27 385.3 119.27"/><path class="cls-4" d="M403.92,247.76s-13.37-.87-15.75,14.08c-2.87,18,7.5,20.07-2.87,47.23h38.35s-8.51-9.86-1.72-32.4S414.5,247.76,403.92,247.76Z" transform="translate(0 -189.8)"/><path class="cls-8" d="M404.76,255.67h0a5.93,5.93,0,0,1-5.94-5.93v-9.89h11.87v9.89A5.93,5.93,0,0,1,404.76,255.67Z" transform="translate(0 -189.8)"/><path class="cls-6" d="M395.25,228.52a2.77,2.77,0,0,0-3.14,3c0,3.3,4.05,3.63,4.05,3.63Z" transform="translate(0 -189.8)"/><path class="cls-6" d="M414.26,228.52a2.77,2.77,0,0,1,3.14,3c0,3.3-4,3.63-4,3.63Z" transform="translate(0 -189.8)"/><path class="cls-6" d="M404.76,244.19h0a9.69,9.69,0,0,1-9.67-9.66v-7.62a9.69,9.69,0,0,1,9.67-9.66h0a9.69,9.69,0,0,1,9.66,9.66v7.62A9.69,9.69,0,0,1,404.76,244.19Z" transform="translate(0 -189.8)"/><path class="cls-12" d="M334.39,266.46c0-26.74-13.35-22.84-26.73-22.84s-12.81,22.84-12.81,22.84l-2.61,45.62a65.49,65.49,0,0,0,43.56,0Z" transform="translate(0 -189.8)"/><path class="cls-3" d="M292.24,312.08l-6.3,118.28h9.93L314.35,330l10.87,100.38h9.93l.65-118.28A77.22,77.22,0,0,1,292.24,312.08Z" transform="translate(0 -189.8)"/><path class="cls-8" d="M314.29,248.6h0c-3.12,0-5.64-.46-5.64-3.57v-9.4h11.28V245C319.93,248.14,317.4,248.6,314.29,248.6Z" transform="translate(0 -189.8)"/><path class="cls-6" d="M314.29,239.75h0a9.21,9.21,0,0,1-9.19-9.18v-7.25a9.22,9.22,0,0,1,9.19-9.19h0a9.21,9.21,0,0,1,9.18,9.19v7.25A9.21,9.21,0,0,1,314.29,239.75Z" transform="translate(0 -189.8)"/><path class="cls-4" d="M259.86,251.75s-7.42,2.56-20.6,13.33-23,11.95-23,11.95l.08,8.24s24.54-3,41.68-20.07" transform="translate(0 -189.8)"/><path class="cls-7" d="M165.9,262s-17.41-11-20.16-42.56c-2.44,0-2.72,0-2.72,0s-3.77,39.09,13.79,58.17" transform="translate(0 -189.8)"/><path class="cls-7" d="M177.11,261s7.85,0,23.83,5.86,25.41,2.39,25.41,2.39l1.28,2.4s-22.6,11.94-44.36,1.45" transform="translate(0 -189.8)"/><path class="cls-4" d="M290.13,340.68a118.49,118.49,0,0,1-45.81,0,128,128,0,0,1,6.62-41.27,36.29,36.29,0,0,0,1.44-18.65c-.93-4.88-2-9.51-.87-16.92,2.31-14.5,15.28-13.65,15.28-13.65,10.27,0,24,6.18,17.47,28-.11.38-.22.75-.32,1.12a37.3,37.3,0,0,0,.81,22.22C290.77,319.31,290.13,340.68,290.13,340.68Z" transform="translate(0 -189.8)"/><path class="cls-4" d="M275,251.75s7.42,2.56,20.59,13.33,23,10.23,23,10.23v8.35s-24.56-1.43-41.7-18.46" transform="translate(0 -189.8)"/><path class="cls-10" d="M216.24,247.22s-9.52-1-27.18,12.61c-17.08,11.14-32.47,3.62-32.47,3.62L155.54,266s7.89,11.51,24.47,9.67a69.15,69.15,0,0,0,28.81-10.3Z" transform="translate(0 -189.8)"/><path class="cls-11" d="M364.39,250.67s7.68,1.66,22.05,10.78S412,269.74,412,269.74l-.52,3.51s-24.56,5.41-43.62-9.45" transform="translate(0 -189.8)"/><path class="cls-10" d="M227.3,247.07s8.24-2.61,28,7.74c18.74,8,32.6-1.57,32.6-1.57l2.25,3.31s-6.57,11.23-23.23,12.27a69.11,69.11,0,0,1-30.15-5.18Z" transform="translate(0 -189.8)"/><path class="cls-11" d="M349.84,252.65s-6.39,4.55-16,18.59S314,287.89,314,287.89l1.61,4.87s24.57-5.52,36.22-26.68" transform="translate(0 -189.8)"/><path class="cls-12" d="M319.86,243.42s9.57-.91,25.74,14.42c15.85,12.84,31.64,6.82,31.64,6.82l1.27,5.35s-9.22,8-25.53,4.48a69.15,69.15,0,0,1-27.6-13.2Z" transform="translate(0 -189.8)"/><path class="cls-12" d="M307.66,243.62s-9.92-.21-26.09,15.13c-15.84,12.83-31.63,6.76-31.63,6.76l-1.9,4.57s9.85,8.85,26.16,5.32a69.09,69.09,0,0,0,27.6-13.21Z" transform="translate(0 -189.8)"/><path class="cls-5" d="M446.45,247.46s-9.57.1-25.58,15.61c-13.28,14.68-30.75,7.91-30.75,7.91l-.67,2.68s8,9.85,24.23,6.14a69.15,69.15,0,0,0,27.45-13.5Z" transform="translate(0 -189.8)"/><path class="cls-5" d="M460,247.15s18.67-11.45,21.77-47.07h2.81s12.29,22.61-14.34,64.59" transform="translate(0 -189.8)"/><path class="cls-4" d="M410.69,248.28s7.83.58,23.33,7.62,25.69,4,25.69,4l1.05,2.52s-18.08,10.64-44.83-1.56" transform="translate(0 -189.8)"/><path class="cls-4" d="M398.82,248.49s-7.73-1.72-24.48,1.32c-12.28,2.23-20.44-.07-23.91-1.45a2.24,2.24,0,0,0-2.86,1.15h0a2.25,2.25,0,0,0,.89,2.91c5.46,3.2,23,12,42.22,6.57" transform="translate(0 -189.8)"/><path class="cls-13" d="M171.67,229.81a12.79,12.79,0,0,0-11.59,8.53c-3,8.53-11.06,15.3-5.06,19.52s1.55,12.66,13.95,14.4,14.3-6.4,14.3-13.57,5.57-5.22,3.34-14.19S177.19,229.81,171.67,229.81Z" transform="translate(0 -189.8)"/><path class="cls-7" d="M221.51,217.31s-8.35-.21-10.48,9.63,4.62,18.56,10.74,18.56,11.74-6.68,10.68-18.11S221.51,217.31,221.51,217.31Z" transform="translate(0 -189.8)"/><path class="cls-13" d="M363.16,218.11c5.62-6-7.77-7.72-8.79-3.18-.1.46.66,3.41,1.36,3.18,0,0-9.33,3-7.76,14.62.56,4.07,1.7,8.92,5.25,11.87a10.6,10.6,0,0,0,12.07.46c4-2.78,5.06-8.14,5.63-12.33C372.49,221.15,363.16,218.11,363.16,218.11Z" transform="translate(0 -189.8)"/><path class="cls-7" d="M417.69,227.28c-3.28-14.81-24.33-14.07-26.8.91a42.24,42.24,0,0,0-.52,6.84v33.43a53,53,0,0,0,28.25,0V235.38A39.17,39.17,0,0,0,417.69,227.28Z" transform="translate(0 -189.8)"/><path class="cls-9" d="M462.15,216.82c-2.57-5-13-5.06-15.63,0-2.15,4.2-7.23,5.2-6.27,11.84s4.67,6.86,6.27,11.24c2.38,6.48,13.25,6.48,15.63,0,1.61-4.38,5.3-4.59,6.27-11.24S464.3,221,462.15,216.82Z" transform="translate(0 -189.8)"/><path class="cls-6" d="M145.74,219.42s.92-5.58.06-6.12-1,3.08-1,3.08-.78-3.22-1-4.85-2.19-1.34-2.62,1.81,1.84,6.1,1.84,6.1Z" transform="translate(0 -189.8)"/><path class="cls-6" d="M156.59,263.45s-4.8-3-5.63-2.43c-.66.51,2.44,2.15,2.44,2.15s-3.26-.54-4.84-1-2.09,1.5.65,3.12,6.33.66,6.33.66Z" transform="translate(0 -189.8)"/><path class="cls-6" d="M216.25,277s-5.6-.82-6.13.05,3.1,1,3.1,1-3.2.83-4.83,1.05-1.3,2.21,1.86,2.59a12,12,0,0,0,6.08-1.09Z" transform="translate(0 -189.8)"/><path class="cls-6" d="M226.35,269.2s4.48-3.46,5.37-3c.71.44-2.22,2.37-2.22,2.37s3.19-.84,4.72-1.45,2.22,1.29-.35,3.17-6.24,1.27-6.24,1.27Z" transform="translate(0 -189.8)"/><path class="cls-6" d="M249.94,265.51s-4.79-3-5.63-2.43c-.66.51,2.44,2.15,2.44,2.15s-3.26-.54-4.84-1-2.08,1.5.65,3.12,6.34.66,6.34.66Z" transform="translate(0 -189.8)"/><path class="cls-6" d="M314,287.89s-5.6.86-5.85,1.85c-.16.82,3.25,0,3.25,0s-2.81,1.73-4.31,2.42-.59,2.5,2.54,1.94,5.22-3.64,5.22-3.64Z" transform="translate(0 -189.8)"/><path class="cls-6" d="M318.51,275.31s5.21-2.21,5.94-1.51c.57.61-2.75,1.73-2.75,1.73s3.3,0,4.94-.2,1.82,1.8-1.14,3-7,.45-7,.45Z" transform="translate(0 -189.8)"/><path class="cls-6" d="M377.24,264.66s5.21-2.21,5.94-1.5c.57.61-2.75,1.73-2.75,1.73s3.3,0,4.94-.21,1.82,1.81-1.14,3-6.36-.35-6.36-.35Z" transform="translate(0 -189.8)"/><path class="cls-6" d="M389.18,270.67s-5.21-2.22-5.94-1.51c-.57.61,2.75,1.73,2.75,1.73s-3.3,0-4.94-.21-1.81,1.81,1.15,3,6.35-.35,6.35-.35Z" transform="translate(0 -189.8)"/><path class="cls-6" d="M459.71,259.85s4.8-3,5.63-2.42c.66.51-2.44,2.14-2.44,2.14s3.26-.53,4.84-1,2.08,1.5-.65,3.12-6.33.67-6.33.67Z" transform="translate(0 -189.8)"/><path class="cls-13" d="M158.16,297.65s-13,28.74-13,63.44c9.28,4.3,43.13,2.86,48.85,0,0,0,1.21-46.6-8.78-63.44C185.19,297.65,174.77,300.92,158.16,297.65Z" transform="translate(0 -189.8)"/><path class="cls-13" d="M375.13,304.05c-10.32,3.42-26.34,2.55-32.48,0,0,0-5,7.14-4.18,23.11a223.21,223.21,0,0,1-.29,24.81l-4.66,78.39h7.25l18.87-102.43,11.08,102.43h6.8l.35-78.89a200.56,200.56,0,0,1,1.4-23.88C380.76,315.66,378.77,309.4,375.13,304.05Z" transform="translate(0 -189.8)"/><path class="cls-13" d="M420.84,280.7a76.43,76.43,0,0,1-31.53-.09,237.32,237.32,0,0,0-7.42,59.18c11.21,3.82,39.07,1.83,45.33,0C427.22,339.79,426.66,296.55,420.84,280.7Z" transform="translate(0 -189.8)"/><path class="cls-5" d="M215.28,247.23l1-.45s0,4.62,5.53,4.62,5.54-4.82,5.54-4.82l.84.33s1,6.11-6.38,6.11S215.28,247.23,215.28,247.23Z" transform="translate(0 -189.8)"/><path class="cls-4" d="M308.65,242.51s.33,5.21,5.64,5.21,5.64-5.42,5.64-5.42l1.69,1.22s.08,6.22-7.33,6.22-7.42-6.07-7.42-6.07Z" transform="translate(0 -189.8)"/><path class="cls-13" d="M252.93,289.48l-.21,2.31s12.87,4.36,30,0l-.11-2.31C265.71,293.16,252.93,289.48,252.93,289.48Z" transform="translate(0 -189.8)"/><path class="cls-14" d="M296.73,266s8.16-7.68.57-19" transform="translate(0 -189.8)"/><path class="cls-14" d="M334,267.07s-11.6-5-1.9-19.61" transform="translate(0 -189.8)"/><path class="cls-14" d="M203.82,324.44l13.89,2.65s1,10.85-7.79,10.85S203.82,324.44,203.82,324.44Z" transform="translate(0 -189.8)"/><path class="cls-14" d="M238.65,324.44l-13.9,2.65s-1,10.85,7.79,10.85S238.65,324.44,238.65,324.44Z" transform="translate(0 -189.8)"/><path class="cls-14" d="M435.72,311.29s20.26,5.9,36.91,0" transform="translate(0 -189.8)"/><path class="cls-15" d="M356.27,218.2a5.9,5.9,0,0,0,6.33,0" transform="translate(0 -189.8)"/><path class="cls-4" d="M343.05,302.78s16.73,4.42,31.71,0l.37,1.27s-5,2.62-16,2.62-16.44-2.62-16.44-2.62Z" transform="translate(0 -189.8)"/><polygon class="cls-13" points="349.69 116.77 349.69 114.23 350.94 114.39 350.94 117.06 349.69 116.77"/><polygon class="cls-13" points="368.03 116.88 368.03 114.41 366.89 114.55 366.89 116.88 368.03 116.88"/><path class="cls-4" d="M191.36,361.92l-.28.07c0-42.75-8-63.6-8.12-63.81l.25-.05C183.29,298.34,191.36,319.12,191.36,361.92Z" transform="translate(0 -189.8)"/><path class="cls-16" d="M204.58,251.15s3.33,6.71,0,15.71" transform="translate(0 -189.8)"/><path class="cls-16" d="M239,263.6s-3.55-6.11,0-14.5" transform="translate(0 -189.8)"/><line class="cls-16" x1="295.63" y1="123.17" x2="288.22" y2="240.56"/><line class="cls-16" x1="331.78" y1="123.35" x2="333.52" y2="232.33"/><line class="cls-16" x1="316.84" y1="98.1" x2="318.51" y2="102.15"/><path class="cls-13" d="M272.81,219.5a12.79,12.79,0,0,0-10.05.88,15.74,15.74,0,0,0-4.91,3.85v0a41.72,41.72,0,0,0-4.1,5.72c-1.25,2.36-8.75,9.17-7.65,15.66a10.6,10.6,0,0,1,2-5.08c-.71,1.72-.73,3.63.61,6.23,2.92-4.31,10.57,1.8,23.17,1.8C283.23,248.52,286.52,224.34,272.81,219.5Z" transform="translate(0 -189.8)"/><path class="cls-9" d="M325.39,220.58c0-3.39-2.71-5.34-5.46-6.45a13.22,13.22,0,0,0-11.85.63A9.1,9.1,0,0,0,303.7,221h0v.11a10.53,10.53,0,0,0-.19,2c0,1.83,0,3.56.11,5.16l-.11,11.47.64-2.26v2.26h20.26s.08-.82.32-4.49l.68,4.49Z" transform="translate(0 -189.8)"/><path class="cls-12" d="M440.36,249.15a6.66,6.66,0,0,1,7.13-3.42c5,.91,5.77,3.06,8.78,1.73s4.56-3.27,7.17-3.27c0,7.63-1,13.48-7.92,14.74S447.36,248.4,440.36,249.15Z" transform="translate(0 -189.8)"/><polygon class="cls-12" points="388.55 83.52 389.18 80.87 390.12 81.18 389.45 83.86 388.55 83.52"/><rect class="cls-12" x="481.77" y="9.32" width="2.81" height="0.96"/></g><path class="cls-17" d="M0,289.87H51.09s-2.66-12.78-17.56-8.52c-14.37-14.37-24.48-.87-24.48-.87S0,279.75,0,289.87Z" transform="translate(0 -189.8)"/><path class="cls-17" d="M448.32,268.23h51.09s-2.66-12.77-17.56-8.51c-14.37-14.37-24.48-.87-24.48-.87S448.32,258.12,448.32,268.23Z" transform="translate(0 -189.8)"/><path class="cls-17" d="M391.26,241.93h39.46s-3.77-9.82-13.85-5.64C410,224.93,391.26,229,391.26,241.93Z" transform="translate(0 -189.8)"/></g></g></svg>