<svg xmlns="http://www.w3.org/2000/svg" viewBox="0 0 98.94 44.09"><defs><style>.cls-1{isolation:isolate;}.cls-2{fill:#fff;}.cls-3,.cls-4{fill:#7130aa;}.cls-4{opacity:0.5;mix-blend-mode:multiply;}</style></defs><title>Recurso 7</title><g class="cls-1"><g id="Capa_2" data-name="Capa 2"><g id="OBJECTS"><path class="cls-2" d="M79.11,26.41a4,4,0,0,0,0-5.93c-4.2-3.72-13-9.49-26.48-8.28a69.85,69.85,0,0,0-22.15,5.5V29.2a69.85,69.85,0,0,0,22.15,5.5C66.09,35.91,74.91,30.14,79.11,26.41Z"/><path class="cls-2" d="M31.73,31.82V44.09c9.45,0,14.18-4.34,16.47-7.85A71.5,71.5,0,0,1,31.73,31.82Z"/><path class="cls-2" d="M31.73,15.08V2.81c9.45,0,14.18,4.34,16.47,7.85A71,71,0,0,0,31.73,15.08Z"/><path class="cls-2" d="M29.29,23.45V17.89a6.48,6.48,0,0,0-4.52,1.62s1.55.19,2,1a9.69,9.69,0,0,0-4.93,2.91,9.69,9.69,0,0,0,4.93,2.91c-.45.84-2,1-2,1A6.5,6.5,0,0,0,29.29,29Z"/><path class="cls-3" d="M37.7,40.9a.33.33,0,0,0,.54-.18l.2-1a.32.32,0,0,1,.16-.22l.87-.49a.32.32,0,0,0,0-.56L38.6,38a.29.29,0,0,1-.16-.21l-.2-1a.33.33,0,0,0-.54-.17l-.74.68a.33.33,0,0,1-.25.08l-1-.11a.32.32,0,0,0-.33.45l.42.92a.3.3,0,0,1,0,.26l-.42.92a.32.32,0,0,0,.33.45l1-.11a.33.33,0,0,1,.25.08Z"/><path class="cls-3" d="M37.7,6a.33.33,0,0,1,.54.17l.2,1a.29.29,0,0,0,.16.21l.87.5a.32.32,0,0,1,0,.56l-.87.49a.32.32,0,0,0-.16.22l-.2,1a.33.33,0,0,1-.54.18L37,9.62a.33.33,0,0,0-.25-.08l-1,.11a.32.32,0,0,1-.33-.45l.42-.92a.3.3,0,0,0,0-.26l-.42-.92a.32.32,0,0,1,.33-.45l1,.11A.33.33,0,0,0,37,6.68Z"/><path class="cls-3" d="M47.63,23.76a.32.32,0,0,0,0-.62,42.79,42.79,0,0,0-11-1.76,13.33,13.33,0,0,0-4.5.68,1.19,1.19,0,0,0-.8,1.1v.29h0v.29a1.19,1.19,0,0,0,.8,1.1,13.33,13.33,0,0,0,4.5.68A42.79,42.79,0,0,0,47.63,23.76Z"/><circle class="cls-3" cx="61.09" cy="23.45" r="3.32"/><path class="cls-3" d="M67.39,23.45a6.31,6.31,0,1,0-6.3,6.31A6.31,6.31,0,0,0,67.39,23.45Zm-11,0a4.7,4.7,0,1,1,4.7,4.7A4.71,4.71,0,0,1,56.39,23.45Z"/><path class="cls-3" d="M75.74,17.88c-.4-.27-.81-.54-1.25-.81a31.4,31.4,0,0,0,0,12.76q.66-.41,1.26-.81a30.09,30.09,0,0,1-.53-5.57A30.89,30.89,0,0,1,75.74,17.88Z"/><path class="cls-2" d="M86.27,12.73H75.48a.41.41,0,1,1,0-.81H86.27a.41.41,0,1,1,0,.81Z"/><path class="cls-2" d="M79.22,37.86H68.43a.41.41,0,0,1-.41-.41.42.42,0,0,1,.41-.41H79.22a.41.41,0,0,1,.41.41A.41.41,0,0,1,79.22,37.86Z"/><path class="cls-2" d="M27,43.08h-12a.41.41,0,0,1,0-.81H27a.41.41,0,1,1,0,.81Z"/><path class="cls-2" d="M18.07,16.78h-6.8a.41.41,0,1,1,0-.81h6.8a.41.41,0,0,1,0,.81Z"/><path class="cls-2" d="M25.68,33.45h-6.8a.42.42,0,0,1-.41-.41.41.41,0,0,1,.41-.41h6.8a.41.41,0,0,1,.41.41A.41.41,0,0,1,25.68,33.45Z"/><path class="cls-2" d="M65.27,6.55H53a.41.41,0,0,1,0-.81H65.27a.41.41,0,0,1,0,.81Z"/><path class="cls-2" d="M89.22,32.23H83.06a.41.41,0,0,1-.41-.41.42.42,0,0,1,.41-.41h6.16a.41.41,0,0,1,.41.41A.41.41,0,0,1,89.22,32.23Z"/><path class="cls-2" d="M50.2.81H45.67a.41.41,0,1,1,0-.81H50.2a.41.41,0,0,1,.41.41A.41.41,0,0,1,50.2.81Z"/><path class="cls-2" d="M26,11H17.41a.41.41,0,0,1,0-.81H26A.41.41,0,1,1,26,11Z"/><path class="cls-2" d="M20.88,4.22H13.14a.41.41,0,1,1,0-.81h7.74a.41.41,0,0,1,0,.81Z"/><path class="cls-2" d="M91.37,19H84.63a.41.41,0,1,1,0-.81h6.74a.41.41,0,1,1,0,.81Z"/><path class="cls-2" d="M61,42.68H50a.41.41,0,0,1,0-.82H61a.41.41,0,0,1,0,.82Z"/><path class="cls-4" d="M21.43,36.52,20,35.83a3.43,3.43,0,0,0-1.09-2.51,3.16,3.16,0,0,0,.24-2,3.2,3.2,0,0,0-4.84-2.06,5.72,5.72,0,0,0-9.41,3.16,3.46,3.46,0,0,0-3,3.42c0,.06,0,.12,0,.18l-1.56.48a.49.49,0,0,0,.15,1H21.23A.49.49,0,0,0,21.43,36.52Z"/><path class="cls-4" d="M98.62,10.65,95.1,9.79h0a4.25,4.25,0,0,0-3.43-2.53v0a3.32,3.32,0,0,0-3.32-3.32,3.23,3.23,0,0,0-1.08.19,4.24,4.24,0,0,0-8.38,1,.49.49,0,0,0,0,.12,4.61,4.61,0,0,0-1-.12,4.25,4.25,0,0,0-3.77,2.29,4.72,4.72,0,0,0-1-.12,4.26,4.26,0,0,0-4,2.73l-3.39.69a.42.42,0,0,0,.09.83H98.52A.42.42,0,0,0,98.62,10.65Z"/></g></g></g></svg>