<svg xmlns="http://www.w3.org/2000/svg" xmlns:xlink="http://www.w3.org/1999/xlink" viewBox="0 0 228.77 205"><defs><style>.cls-1,.cls-16,.cls-22,.cls-24,.cls-26{fill:none;}.cls-2{fill:#d0d9f4;}.cls-3{isolation:isolate;}.cls-4{fill:#121e51;}.cls-5{fill:#0d2160;}.cls-6{fill:#33417c;}.cls-18,.cls-47,.cls-7{fill:#0b0c15;}.cls-7{opacity:0.4;}.cls-27,.cls-35,.cls-37,.cls-38,.cls-8,.cls-9{fill:#fff;}.cls-8{opacity:0.38;}.cls-10,.cls-20,.cls-23,.cls-25{fill:#131522;}.cls-10,.cls-29{opacity:0.2;}.cls-11{fill:#1b203d;}.cls-12{fill:#13172a;}.cls-13{fill:#1e2444;}.cls-14{fill:#303b68;}.cls-15,.cls-35{opacity:0.79;}.cls-16{stroke:#edc315;stroke-width:0.72px;}.cls-16,.cls-22,.cls-24,.cls-26{stroke-linecap:round;stroke-miterlimit:10;}.cls-17{fill:#29abe2;}.cls-19{fill:#ffd4ab;}.cls-20,.cls-22{opacity:0.17;}.cls-21{fill:#e4cba6;}.cls-22,.cls-24{stroke:#131522;}.cls-22{stroke-width:0.09px;}.cls-24{stroke-width:0.19px;}.cls-25{opacity:0.24;}.cls-26{stroke:#b79262;stroke-width:0.18px;}.cls-27{opacity:0.9;}.cls-28{fill:#21a0cc;}.cls-30{clip-path:url(#clip-path);}.cls-31{fill:#0e0f19;}.cls-32{fill:#0d0e18;}.cls-33{fill:#0d0e17;}.cls-34{fill:#232a4f;}.cls-36{fill:#121935;}.cls-37{opacity:0.44;}.cls-38{opacity:0.86;}.cls-39{fill:#b79610;}.cls-40{fill:#7f690b;}.cls-41{fill:#cca812;}.cls-42{fill:#161d38;}.cls-43{fill:#0e152b;}.cls-44{fill:#161c3a;}.cls-45{fill:#b3b3b3;}.cls-46{fill:#1f2c54;}.cls-47{opacity:0.25;}</style><clipPath id="clip-path"><path class="cls-1" d="M98.37,118.36l.08-29.28a6.47,6.47,0,0,1,.42-2.28l-.08,29.28A6.47,6.47,0,0,0,98.37,118.36Z"/></clipPath></defs><title>Recurso 2</title><g id="Capa_2" data-name="Capa 2"><g id="OBJECTS"><path class="cls-2" d="M113.43,204.74,1,139.81a1.92,1.92,0,0,1,0-3.33L113.43,71.55a1.93,1.93,0,0,1,1.92,0l112.46,64.93a1.92,1.92,0,0,1,0,3.33L115.35,204.74A1.93,1.93,0,0,1,113.43,204.74Z"/><g class="cls-3"><path class="cls-4" d="M117.52,3.51H100.2A4.35,4.35,0,0,1,98.05,3a1.53,1.53,0,0,1-.89-1.24l-.24,82.37a1.54,1.54,0,0,0,.9,1.25,4.45,4.45,0,0,0,2.14.51h17.33a4.37,4.37,0,0,1,2.14.51L119.67,4A4.41,4.41,0,0,0,117.52,3.51Z"/><path class="cls-5" d="M185.4,42,119.67,4l-.24,82.37,65.74,37.95a1.78,1.78,0,0,1,1,1.3l.23-81.75C186.86,43.66,185.87,41.74,185.4,42Z"/><path class="cls-4" d="M192.41,52.43l-.23,82.37c0,1-1.35,1.76-3,1.76A4.35,4.35,0,0,1,187,136a1.5,1.5,0,0,1-.89-1.24l.23-82.37a1.54,1.54,0,0,0,.9,1.24,4.31,4.31,0,0,0,2.14.51C191.06,54.18,192.42,53.4,192.41,52.43Z"/><path class="cls-6" d="M191.46,40.53a1.5,1.5,0,0,1,.89,1.24l.06,10.66c0,1-1.35,1.75-3,1.75a4.31,4.31,0,0,1-2.14-.51,1.54,1.54,0,0,1-.9-1.24l0-9.21a1.56,1.56,0,0,0-.9-1.24L119.67,4a4.41,4.41,0,0,0-2.15-.52H100.2A4.35,4.35,0,0,1,98.05,3a1.53,1.53,0,0,1-.89-1.24c0-1,1.34-1.76,3-1.76H120a4.38,4.38,0,0,1,2.15.52Z"/></g><path class="cls-7" d="M179.22,53.12l-44-25.4a3.56,3.56,0,0,0-5.34,3.08l-.15,53.58a3.55,3.55,0,0,0,1.77,3.09l47.53,27.44c.42.25.84-60.86.84-60.86A1.14,1.14,0,0,0,179.22,53.12Z"/><path class="cls-8" d="M179.22,44.59l-44-25.39a3.56,3.56,0,0,0-5.34,3.07l-.15,53.58a3.53,3.53,0,0,0,1.77,3.09l47.53,27.44c.42.25.84-60.86.84-60.86A1.14,1.14,0,0,0,179.22,44.59Z"/><path class="cls-9" d="M178.1,45.71l-44-25.39a3.56,3.56,0,0,0-5.34,3.07L128.62,77a3.59,3.59,0,0,0,1.78,3.1l47.52,27.43c.43.25.85-60.86.85-60.86A1.15,1.15,0,0,0,178.1,45.71Z"/><polygon class="cls-10" points="161.2 174.73 145.13 165.45 161.2 156.17 177.28 165.45 161.2 174.73"/><polygon class="cls-10" points="51.09 129.57 35.01 120.29 51.09 111.01 67.16 120.29 51.09 129.57"/><g class="cls-3"><polygon class="cls-11" points="61.92 83.18 61.83 118.46 52.61 123.82 52.7 93.12 61.92 83.18"/><polygon class="cls-12" points="52.7 93.12 52.61 123.82 43.32 118.46 43.41 87.75 52.7 93.12"/><polygon class="cls-13" points="61.92 83.18 52.7 93.12 43.41 87.75 52.64 77.82 61.92 83.18"/></g><polygon class="cls-13" points="63.3 79.28 52.55 73.08 41.87 84.58 39.05 85.27 39.05 87.61 52.63 95.45 66.13 80.92 66.13 78.58 63.3 79.28"/><polygon class="cls-14" points="66.13 78.58 52.63 93.12 39.05 85.27 52.55 70.74 66.13 78.58"/><g class="cls-15"><path class="cls-9" d="M61,80.73,53.34,89a1.49,1.49,0,0,1-1.82.28L44.38,85.1A1.47,1.47,0,0,1,44,82.83l7.64-8.22a1.46,1.46,0,0,1,1.81-.28l7.14,4.12A1.47,1.47,0,0,1,61,80.73Z"/></g><g class="cls-15"><path class="cls-9" d="M61,79.74,53.34,88a1.47,1.47,0,0,1-1.82.27l-7.14-4.12A1.47,1.47,0,0,1,44,81.84l7.64-8.23a1.47,1.47,0,0,1,1.81-.27l7.14,4.12A1.47,1.47,0,0,1,61,79.74Z"/><line class="cls-16" x1="51.7" y1="75.19" x2="58.84" y2="79.32"/><line class="cls-16" x1="50.85" y1="76.36" x2="57.99" y2="80.49"/><line class="cls-16" x1="49.59" y1="77.3" x2="56.73" y2="81.43"/><line class="cls-16" x1="48.74" y1="78.47" x2="55.88" y2="82.6"/><line class="cls-16" x1="47.71" y1="79.59" x2="54.85" y2="83.72"/><line class="cls-16" x1="46.85" y1="80.76" x2="53.99" y2="84.89"/></g><path class="cls-17" d="M109.53,95.14l7.89,4.5a2.07,2.07,0,0,0,3-1.25l5.81-21.25a2.09,2.09,0,0,0-1.49-2.56l-15.91-4a2.07,2.07,0,0,0-2.57,2.23l2.21,20.77A2.06,2.06,0,0,0,109.53,95.14Z"/><path class="cls-18" d="M106.17,60s-.91,7.07,1.23,6.82,1.36-7,1.36-7Z"/><path class="cls-19" d="M119.24,67.11l-.59,6.28a2.82,2.82,0,0,1-2.31,1c-1.41-.13-1.34-.91-1.34-.91l-.2-3.82Z"/><path class="cls-20" d="M117.81,69.75s-2.4,3.66-2.74,3.07a7,7,0,0,1-.16-2.55Z"/><path class="cls-19" d="M110.86,72.11h0c3.6.34,8.67-1.85,9-5.46l.55-5.91a6.59,6.59,0,0,0-5.94-7.16h0a6.59,6.59,0,0,0-7.16,5.94l-.56,5.91C106.42,69,107.25,71.77,110.86,72.11Z"/><path class="cls-21" d="M118.22,64.5s2-1.51,2.37-.08-1.27,3.34-2.31,3.13"/><path class="cls-22" d="M118.46,66s.57-.8,1-.93"/><path class="cls-23" d="M111.54,65c-.06.6.17,1.11.5,1.15s.64-.43.7-1-.17-1.11-.5-1.15S111.6,64.39,111.54,65Z"/><path class="cls-23" d="M107.13,64.81c0,.6.17,1.11.5,1.14s.64-.43.7-1-.17-1.11-.5-1.14S107.19,64.21,107.13,64.81Z"/><path class="cls-18" d="M106.4,68.75a1.29,1.29,0,0,1,1-1.43,7.28,7.28,0,0,1,2.83,0c2.24.48,4,2,5.65.8s1.58-4.5,2.25-4.49,2.09,7.75-4.85,9.83C107.88,75.1,106.67,70.78,106.4,68.75Z"/><path class="cls-9" d="M108.89,68.85l1.56.05a.87.87,0,0,1-.91.86C108.66,69.74,108.89,68.85,108.89,68.85Z"/><path class="cls-18" d="M111.51,63.62s1.8.54,1.94,0-1.16-1.25-1.86-.92S111.51,63.62,111.51,63.62Z"/><path class="cls-18" d="M108.71,63.34s-1.88.2-1.92-.34,1.37-1,2-.56S108.71,63.34,108.71,63.34Z"/><path class="cls-24" d="M105.82,64.69a1.76,1.76,0,1,0,1.91-1.9A1.91,1.91,0,0,0,105.82,64.69Z"/><path class="cls-25" d="M105.86,64.68a1.67,1.67,0,1,0,1.82-1.81A1.82,1.82,0,0,0,105.86,64.68Z"/><path class="cls-25" d="M109.74,64.85a1.67,1.67,0,1,0,1.82-1.8A1.82,1.82,0,0,0,109.74,64.85Z"/><path class="cls-24" d="M109.67,64.86a1.76,1.76,0,1,0,3.44.32A1.9,1.9,0,0,0,111.59,63,1.93,1.93,0,0,0,109.67,64.86Z"/><line class="cls-24" x1="109.26" y1="65.01" x2="109.63" y2="65.04"/><line class="cls-24" x1="113.06" y1="64.94" x2="118.29" y2="64.44"/><path class="cls-26" d="M109.14,66.52s.14-.22.28-.21.2.3.2.3"/><path class="cls-18" d="M120.23,63.49s2.88-7.7-3.76-9.75-14.34,2.88-12.36,5.51,7.14,3.4,9,2,2.12-2,3.25-1.24.39,3.74,1.6,4.14A2.36,2.36,0,0,0,120.23,63.49Z"/><path class="cls-17" d="M117.15,80.63l2.94,1.46a.59.59,0,0,1,.31.62L120,84.76a.56.56,0,0,1-.8.41l-2.89-1.36a.56.56,0,0,1-.32-.6l.33-2.16A.57.57,0,0,1,117.15,80.63Z"/><path class="cls-27" d="M116.93,80.63l2.94,1.46a.58.58,0,0,1,.3.62l-.38,2.05a.57.57,0,0,1-.8.41l-2.9-1.36a.56.56,0,0,1-.32-.6l.34-2.16A.57.57,0,0,1,116.93,80.63Z"/><path class="cls-18" d="M108.09,91.27s9.16,5.57,11,5.39a3.63,3.63,0,0,0,2.34-.81s.18,4.76-2.34,4.85-10.51-4.49-10.87-6.2A9.77,9.77,0,0,1,108.09,91.27Z"/><path class="cls-18" d="M117.34,98.45s0,36.46.63,36.37,3.15-37,3.15-37l-3.42.35"/><path class="cls-14" d="M118.06,133.93s-3.41,2.69-1.79,2.69,1.7-1.8,1.7-1.8Z"/><path class="cls-18" d="M109.17,94.23l3.41-.36s-2.51,36.91-3.14,37-.63-36.37-.63-36.37Z"/><path class="cls-14" d="M109.53,130s-3.41,2.69-1.79,2.69,1.7-1.8,1.7-1.8Z"/><path class="cls-28" d="M115.63,74.64l1.52,2.08s2.08.39,3.12-.87,1-1.6,1-1.6l-2.12-1.83S117.07,74.55,115.63,74.64Z"/><path class="cls-28" d="M115.63,74.64s-.78-1.39-.69-1.7a10.35,10.35,0,0,1-1.69.83c-.61.17-.38.12-.38.12s.29,1.14.77,1.44.61.26.61.26Z"/><polygon class="cls-14" points="115.63 74.64 114.25 75.59 115.24 77.33 117.15 76.72 115.63 74.64"/><polygon class="cls-14" points="115.23 76.93 111.07 89.96 112.19 92.91 114.15 91.05 115.63 76.67 115.23 76.93"/><rect class="cls-27" x="118.18" y="80.45" width="0.59" height="1.22" transform="translate(31.8 -33.37) rotate(18.48)"/><g class="cls-29"><path class="cls-23" d="M130.85,142.65l14.83,1.86c-10.34,6-31.21,10.39-41.62,4.38l-20.9-12.07c-10.41-6-10.47-15.76-.12-21.77l10.8,6.23c-1.3,3.48.4,7.27,5.08,10l14.69,8.48C118.3,142.44,124.84,143.41,130.85,142.65Z"/></g><g class="cls-3"><g class="cls-3"><g class="cls-30"><g class="cls-3"><path class="cls-31" d="M98.87,86.8l-.08,29.28a6.47,6.47,0,0,0-.3,1l.08-29.28a6.47,6.47,0,0,1,.3-1"/><path class="cls-32" d="M98.57,87.84l-.08,29.28a6.61,6.61,0,0,0-.12,1.07l.08-29.28a6.49,6.49,0,0,1,.12-1.07"/><path class="cls-33" d="M98.45,88.91l-.08,29.28v.17l.08-29.28v-.17"/></g></g></g><path class="cls-18" d="M144.32,144.85l.49-.23c.61-.29,1.21-.6,1.79-.94l.08-29.28c-.57.34-1.18.64-1.79.94l-.49.23c-.55.26-1.12.5-1.7.73l-.23.09c-.62.24-1.26.45-1.91.66-.45.14-.9.26-1.36.39l-1,.28-1.47.31c-.36.07-.71.16-1.07.22l-.45.07c-.61.1-1.23.19-1.84.26l-.54.07q-1.08.1-2.16.18l-.4,0-1.46,0c-.48,0-1,0-1.46,0s-.81,0-1.21,0l-1.35-.07-1.23-.11-1.33-.14-1.18-.17c-.48-.07-1-.16-1.41-.25s-1-.18-1.47-.29l-.34-.08c-.68-.16-1.35-.34-2-.54l-.56-.17c-.55-.17-1.09-.36-1.62-.55l-.46-.17c-.48-.19-1-.4-1.41-.6l-.69-.3q-1-.48-2-1l-20.9-12.07c-5.24-3-7.86-7-7.84-11l-.09,29.28c0,4,2.61,7.94,7.85,11L109,143.68c.62.36,1.28.7,1.95,1,.22.11.46.2.68.3.4.18.79.36,1.2.52l.22.08.46.17c.53.19,1.07.38,1.61.55l.56.17.38.12c.54.15,1.08.29,1.63.42l.34.08.8.18c.22.05.45.07.66.12.47.08.94.17,1.41.24l.57.1.62.07,1.33.15.63.07.6,0,1.35.07.67,0c.18,0,.36,0,.54,0h2.18l.74,0,.4,0c.6,0,1.21-.08,1.81-.14l.35,0,.53-.07c.62-.07,1.23-.16,1.84-.26l.45-.07.22,0,.86-.19c.49-.1,1-.19,1.47-.31l1-.28c.46-.13.92-.25,1.37-.39a2.46,2.46,0,0,0,.29-.09q.82-.26,1.62-.57l.23-.09C143.2,145.35,143.76,145.11,144.32,144.85Z"/><path class="cls-23" d="M135.88,108.16l10.8,6.24c-10.35,6-27.18,6-37.59,0l-20.9-12.07c-10.41-6-10.47-15.76-.12-21.77l10.8,6.24c-1.3,3.48.4,7.27,5.08,10l14.69,8.48C123.33,108,129.87,108.93,135.88,108.16Z"/><path class="cls-34" d="M105.48,135.53l-17.19-9.92a2.91,2.91,0,0,1-1.45-2.52V110.75a2.91,2.91,0,0,1,4.36-2.52l17.19,9.92a2.93,2.93,0,0,1,1.45,2.52V133A2.91,2.91,0,0,1,105.48,135.53Z"/><path class="cls-35" d="M103.32,136.91,86.14,127a2.91,2.91,0,0,1-1.46-2.52V112.13A2.91,2.91,0,0,1,89,109.61l17.19,9.93a2.91,2.91,0,0,1,1.45,2.52V134.4A2.91,2.91,0,0,1,103.32,136.91Z"/><path class="cls-9" d="M101.34,134.23l-14-8.06a2.36,2.36,0,0,1-1.18-2v-10a2.36,2.36,0,0,1,3.54-2l14,8.06a2.36,2.36,0,0,1,1.18,2v10A2.36,2.36,0,0,1,101.34,134.23Z"/></g><path class="cls-34" d="M136.4,106.86l7.3,4.22a1.85,1.85,0,0,1-.23,3.31c-10.37,4.37-25,3.83-34.38-1.59l-20.9-12.06c-10.06-5.82-10.45-15.12-1.12-21.17a1.87,1.87,0,0,1,2-.06l8.6,5a1.86,1.86,0,0,1,.93,1.9c-.57,3.14,1.24,6.4,5.4,8.8l14.69,8.48c4.53,2.62,10.8,3.61,16.64,3A1.9,1.9,0,0,1,136.4,106.86Z"/><path class="cls-36" d="M144.12,111.41a1.9,1.9,0,0,1-.65.48c-10.37,4.36-25,3.83-34.38-1.6L88.19,98.23c-4.67-2.7-7.25-6.15-7.75-9.67-.61,4.35,2,8.84,7.75,12.18l20.9,12.06c9.4,5.42,24,6,34.38,1.59A1.85,1.85,0,0,0,144.12,111.41Z"/><path class="cls-36" d="M98.47,85.5a5.9,5.9,0,0,0,.1.7A1.83,1.83,0,0,0,98.47,85.5Z"/><path class="cls-37" d="M110.3,108.56,97.73,101.3a.8.8,0,0,1,0-1.38L104,96.29a.81.81,0,0,1,.8,0l12.57,7.26a.8.8,0,0,1,0,1.38l-6.29,3.63A.8.8,0,0,1,110.3,108.56Z"/><path class="cls-38" d="M110.41,107.59l-12.57-7.25a.8.8,0,0,1,0-1.38l6.29-3.63a.77.77,0,0,1,.8,0l12.56,7.25a.79.79,0,0,1,0,1.38l-6.28,3.63A.81.81,0,0,1,110.41,107.59Z"/><path class="cls-17" d="M126.62,77.24c.35,6.56-1.17,23.43-11.31,27.09a.78.78,0,0,1-.65-.06h0a.75.75,0,0,1,.08-1.33,11.76,11.76,0,0,0,5.86-5.69c2.22-4.59,2.25-16.12,2.23-18.75a1.31,1.31,0,0,1,.38-.94l1.17-1.17A1.32,1.32,0,0,1,126.62,77.24Z"/><path class="cls-19" d="M117,101.67a11.47,11.47,0,0,1-2.21,1.27.75.75,0,0,0-.08,1.33.78.78,0,0,0,.65.06,11.52,11.52,0,0,0,3-1.61Z"/><path class="cls-17" d="M106.3,72.4s-.56,14.89-5.24,13.72-4.69-7.54-5.53-7.29-.2,8.82,5.9,8.66,6.71-8.41,6.71-8.41Z"/><path class="cls-19" d="M95.76,82.89l1.23-.6s-.9-3.74-1.5-3.57S95.33,82.19,95.76,82.89Z"/><g class="cls-3"><polygon class="cls-23" points="152.67 158.12 164.35 151.33 164.34 155.47 152.66 162.25 152.67 158.12"/><polygon class="cls-23" points="152.7 150.3 164.37 143.52 164.35 149.78 152.68 156.56 152.7 150.3"/><polygon class="cls-23" points="152.72 141.12 164.4 134.34 164.37 141.96 152.7 148.75 152.72 141.12"/><polygon class="cls-34" points="152.68 156.56 164.35 149.78 179 158.23 167.32 165.02 152.68 156.56"/><g class="cls-3"><polygon class="cls-39" points="170.23 143.06 170.22 146.2 166.83 148.17 166.84 145.03 170.23 143.06"/><polygon class="cls-40" points="166.84 145.03 166.83 148.17 163.41 146.2 163.42 143.06 166.84 145.03"/><polygon class="cls-41" points="170.23 143.06 166.84 145.03 163.42 143.06 166.81 141.09 170.23 143.06"/></g><g class="cls-3"><polygon class="cls-39" points="174.9 146.2 174.89 149.34 171.5 151.32 171.5 148.18 174.9 146.2"/><polygon class="cls-40" points="171.5 148.18 171.5 151.32 168.08 149.34 168.09 146.2 171.5 148.18"/><polygon class="cls-41" points="174.9 146.2 171.5 148.18 168.09 146.2 171.48 144.23 174.9 146.2"/></g><polygon class="cls-34" points="152.7 148.75 164.37 141.96 179.02 150.42 167.35 157.2 152.7 148.75"/><g class="cls-3"><polygon class="cls-39" points="163.23 145.66 163.22 148.8 159.82 150.78 159.83 147.64 163.23 145.66"/><polygon class="cls-40" points="159.83 147.64 159.82 150.78 156.4 148.8 156.41 145.66 159.83 147.64"/><polygon class="cls-41" points="163.23 145.66 159.83 147.64 156.41 145.66 159.81 143.69 163.23 145.66"/></g><g class="cls-3"><polygon class="cls-39" points="167.9 148.81 167.89 151.95 164.49 153.92 164.5 150.78 167.9 148.81"/><polygon class="cls-40" points="164.5 150.78 164.49 153.92 161.07 151.95 161.08 148.81 164.5 150.78"/><polygon class="cls-41" points="167.9 148.81 164.5 150.78 161.08 148.81 164.48 146.83 167.9 148.81"/></g><polygon class="cls-23" points="152.75 131.95 164.42 125.17 164.4 132.78 152.73 139.57 152.75 131.95"/><polygon class="cls-34" points="152.73 139.57 164.4 132.78 179.04 141.24 167.37 148.03 152.73 139.57"/><g class="cls-3"><polygon class="cls-39" points="162.69 136.23 162.68 139.37 159.28 141.35 159.29 138.21 162.69 136.23"/><polygon class="cls-40" points="159.29 138.21 159.28 141.35 155.86 139.37 155.87 136.23 159.29 138.21"/><polygon class="cls-41" points="162.69 136.23 159.29 138.21 155.87 136.23 159.27 134.26 162.69 136.23"/></g><g class="cls-3"><polygon class="cls-39" points="167.36 139.38 167.35 142.52 163.95 144.49 163.96 141.35 167.36 139.38"/><polygon class="cls-40" points="163.96 141.35 163.95 144.49 160.53 142.52 160.54 139.38 163.96 141.35"/><polygon class="cls-41" points="167.36 139.38 163.96 141.35 160.54 139.38 163.94 137.4 167.36 139.38"/></g><polygon class="cls-23" points="152.77 122.78 164.45 115.99 164.43 123.61 152.75 130.4 152.77 122.78"/><polygon class="cls-34" points="152.75 130.4 164.43 123.61 179.07 132.07 167.4 138.85 152.75 130.4"/><g class="cls-3"><polygon class="cls-39" points="162.51 126.8 162.5 129.94 159.1 131.92 159.11 128.78 162.51 126.8"/><polygon class="cls-40" points="159.11 128.78 159.1 131.92 155.68 129.94 155.69 126.8 159.11 128.78"/><polygon class="cls-41" points="162.51 126.8 159.11 128.78 155.69 126.8 159.09 124.83 162.51 126.8"/></g><g class="cls-3"><polygon class="cls-39" points="167.18 129.95 167.17 133.09 163.77 135.06 163.78 131.92 167.18 129.95"/><polygon class="cls-40" points="163.78 131.92 163.77 135.06 160.35 133.09 160.36 129.95 163.78 131.92"/><polygon class="cls-41" points="167.18 129.95 163.78 131.92 160.36 129.95 163.76 127.97 167.18 129.95"/></g><polygon class="cls-23" points="152.81 109.45 164.49 102.66 164.45 114.44 152.78 121.22 152.81 109.45"/><polygon class="cls-34" points="152.78 121.22 164.45 114.44 179.1 122.89 167.42 129.68 152.78 121.22"/><g class="cls-3"><polygon class="cls-39" points="162.33 117.02 162.32 120.16 158.92 122.13 158.93 118.99 162.33 117.02"/><polygon class="cls-40" points="158.93 118.99 158.92 122.13 155.5 120.16 155.51 117.02 158.93 118.99"/><polygon class="cls-41" points="162.33 117.02 158.93 118.99 155.51 117.02 158.91 115.04 162.33 117.02"/></g><g class="cls-3"><polygon class="cls-39" points="167 120.16 166.99 123.3 163.59 125.27 163.6 122.13 167 120.16"/><polygon class="cls-40" points="163.6 122.13 163.59 125.27 160.18 123.3 160.18 120.16 163.6 122.13"/><polygon class="cls-41" points="167 120.16 163.6 122.13 160.18 120.16 163.58 118.18 167 120.16"/></g><polygon class="cls-34" points="151.75 99.22 163.42 92.44 180.25 102.15 168.57 108.94 151.75 99.22"/><path class="cls-42" d="M151.75,99.22l16.82,9.72v3.8l-.16,58.6-1.09-.63v-4.14l-14.65-8.45v4.13l-1.08-.62v-5.7l0-6.25v-1.57l0-7.61v-1.56l0-7.61v-1.56l0-7.62v-1.56l0-11.77Zm15.67,30.46,0-11.78-14.65-8.45,0,11.77,14.64,8.46m-.07,27.52,0-7.62-14.65-8.46,0,7.63,14.65,8.45m.05-18.35,0-7.62-14.65-8.45,0,7.62,14.65,8.45m0,9.17,0-7.61L152.75,132l0,7.62L167.37,148m-.05,17,0-6.26L152.7,150.3l0,6.26L167.32,165"/><polygon class="cls-23" points="168.57 108.94 168.56 112.74 168.4 171.34 180.07 164.55 180.23 105.96 180.25 102.15 168.57 108.94"/></g><polygon class="cls-43" points="28.18 77.89 30.5 97.88 29.34 98.32 27.53 92.09 28.18 77.89"/><path class="cls-44" d="M6.69,80l0-.06a13.28,13.28,0,0,1,10.57-7c8-1,8.89,4.22,8.89,4.22Z"/><path class="cls-18" d="M25,97.86l-3.41-.36s2.51,36.91,3.14,37,.63-36.37.63-36.37Z"/><path class="cls-14" d="M24.28,99.16l-7.9,4.5a2.07,2.07,0,0,1-3-1.25L7.55,81.15A2.08,2.08,0,0,1,9,78.6l15.91-4a2.07,2.07,0,0,1,2.57,2.22L25.31,97.58A2.07,2.07,0,0,1,24.28,99.16Z"/><path class="cls-18" d="M26.1,94.9s-9.16,5.56-11,5.38a3.66,3.66,0,0,1-2.33-.8s-.18,4.75,2.33,4.84S25.65,99.83,26,98.13A9.45,9.45,0,0,0,26.1,94.9Z"/><path class="cls-44" d="M21.33,77.51a66,66,0,0,1,1.7,10c.45,5.3-1,12.12.45,13.29S27.25,102,28,98.57s1.08-19.39.27-22.18S22.68,75.13,21.33,77.51Z"/><path class="cls-19" d="M15,70.74,15.54,77a2.82,2.82,0,0,0,2.31,1c1.42-.13,1.34-.92,1.34-.92l.2-3.82Z"/><path class="cls-20" d="M16.39,73.38s2.4,3.65,2.74,3.06a6.91,6.91,0,0,0,.15-2.54Z"/><path class="cls-19" d="M21.78,75.88h0a6.92,6.92,0,0,1-7.51-6.23l-.49-5.28a6.6,6.6,0,0,1,5.94-7.17h0a6.62,6.62,0,0,1,7.17,5.94l.55,5.92A6.27,6.27,0,0,1,21.78,75.88Z"/><path class="cls-21" d="M16,68.12s-2-1.5-2.38-.07,1.27,3.34,2.31,3.13"/><path class="cls-22" d="M15.73,69.65s-.56-.8-1-.94"/><path class="cls-23" d="M22.65,68.62c.06.6-.16,1.11-.49,1.14s-.65-.43-.7-1,.16-1.11.49-1.14S22.6,68,22.65,68.62Z"/><path class="cls-23" d="M27.06,68.43c.06.6-.17,1.11-.5,1.14s-.64-.43-.7-1,.17-1.11.5-1.14S27,67.83,27.06,68.43Z"/><path class="cls-45" d="M27.79,72.37a1.3,1.3,0,0,0-1-1.43A7.31,7.31,0,0,0,24,71c-2.23.47-4,2-5.64.79s-1.59-4.5-2.26-4.48S14,75,21,77.11C26.31,78.72,27.52,74.41,27.79,72.37Z"/><path class="cls-9" d="M25.3,72.47l-1.55.06a.86.86,0,0,0,.9.86C25.53,73.37,25.3,72.47,25.3,72.47Z"/><path class="cls-18" d="M22.69,67.24s-1.81.54-2,0S21.9,66,22.6,66.35,22.69,67.24,22.69,67.24Z"/><path class="cls-18" d="M25.49,67s1.87.19,1.92-.34-1.37-1-2-.56S25.49,67,25.49,67Z"/><path class="cls-26" d="M25.05,70.14s-.14-.22-.28-.2-.2.29-.2.29"/><path class="cls-18" d="M16.85,102.08s0,36.46-.63,36.37-3.14-37-3.14-37l3.41.36"/><path class="cls-18" d="M16.13,137.55s3.41,2.7,1.8,2.7-1.71-1.8-1.71-1.8Z"/><path class="cls-18" d="M24.66,133.6s3.41,2.69,1.8,2.69-1.71-1.79-1.71-1.79Z"/><path class="cls-46" d="M18.56,78.26,17,80.34s-2.08.39-3.12-.86-1-1.61-1-1.61l2.13-1.82S17.13,78.17,18.56,78.26Z"/><path class="cls-46" d="M18.56,78.26s.78-1.39.69-1.69a10.17,10.17,0,0,0,1.69.82l.39.12S21,78.65,20.55,79s-.6.26-.6.26Z"/><path class="cls-44" d="M11,77.38s3.68,1.8,6,7.9,3.41,19.31,2.15,20.48-6.37,2.42-8.26.54S7.05,85.91,6.42,82.86,8,77,11,77.38Z"/><path class="cls-47" d="M8.75,77.2l2.52,6.92,4,.89L14.68,89s4.4,11.32,4.76,13.21a7.49,7.49,0,0,1-.27,3.59s-1-6.47-2.87-10.24a57.23,57.23,0,0,1-2.88-6.73l1.08-3.24-4.67-.18Z"/><polygon class="cls-47" points="24.83 77.11 27.43 80.25 25.1 83.22 26.89 83.85 23.48 100.37 25.82 84.3 24.11 83.04 26.71 79.89 24.83 77.11"/><path class="cls-43" d="M6.6,83.67S3,99.92,24,95.61l-.27-1.53s-6,1.8-9.79.09-4.49-8.62-4.49-8.62S8.75,81.6,6.6,83.67Z"/><path class="cls-19" d="M23.75,94.08s1.74-.49,2.15,0S24,95.61,24,95.61Z"/><path class="cls-19" d="M29.34,98.32s.58,1.66,1.16,1.59,0-2,0-2Z"/></g></g></svg>