<svg xmlns="http://www.w3.org/2000/svg" xmlns:xlink="http://www.w3.org/1999/xlink" viewBox="0 0 187.96 170.7"><defs><style>.cls-1,.cls-12,.cls-14,.cls-8{fill:none;}.cls-2{fill:#d0d9f4;}.cls-13,.cls-3,.cls-6,.cls-9{fill:#131522;}.cls-18,.cls-27,.cls-3{opacity:0.2;}.cls-34,.cls-4{fill:#29abe2;}.cls-5{fill:#ffd4ab;}.cls-6,.cls-8{opacity:0.17;}.cls-7{fill:#e4cba6;}.cls-12,.cls-8{stroke:#131522;}.cls-12,.cls-14,.cls-8{stroke-linecap:round;stroke-miterlimit:10;}.cls-8{stroke-width:0.09px;}.cls-10,.cls-15,.cls-25,.cls-33{fill:#fff;}.cls-11,.cls-27{fill:#0b0c15;}.cls-12{stroke-width:0.18px;}.cls-13{opacity:0.24;}.cls-14{stroke:#b79262;stroke-width:0.17px;}.cls-15{opacity:0.9;}.cls-16{fill:#303b68;}.cls-17{fill:#21a0cc;}.cls-19{isolation:isolate;}.cls-20{clip-path:url(#clip-path);}.cls-21{fill:#0e0f19;}.cls-22{fill:#0d0e18;}.cls-23{fill:#0d0e17;}.cls-24{fill:#232a4f;}.cls-25{opacity:0.79;}.cls-26{fill:#121935;}.cls-28{fill:#1a2244;}.cls-29{fill:#0b153f;}.cls-30{fill:#11131f;}.cls-31{fill:#0c0d15;}.cls-32{fill:#1c2342;}.cls-33{opacity:0.68;}.cls-34{opacity:0.55;}</style><clipPath id="clip-path"><path class="cls-1" d="M75.61,96.06l.08-28a6.13,6.13,0,0,1,.4-2.18l-.08,28A6.32,6.32,0,0,0,75.61,96.06Z"/></clipPath></defs><title>Recurso 1</title><g id="Capa_2" data-name="Capa 2"><g id="OBJECTS"><path class="cls-2" d="M93.06,170.46.92,117.26a1.83,1.83,0,0,1,0-3.18l92.14-53.2a1.83,1.83,0,0,1,1.84,0l92.15,53.2a1.84,1.84,0,0,1,0,3.18L94.9,170.46A1.83,1.83,0,0,1,93.06,170.46Z"/><ellipse class="cls-3" cx="138.45" cy="126.98" rx="6.52" ry="11.29" transform="translate(11.27 265.25) rotate(-89.92)"/><path class="cls-4" d="M85.46,74.18,93,78.48a2,2,0,0,0,2.89-1.2L101.45,57A2,2,0,0,0,100,54.53l-15.2-3.84a2,2,0,0,0-2.45,2.12l2.11,19.86A2,2,0,0,0,85.46,74.18Z"/><path class="cls-5" d="M94.75,47.39l-.56,6a2.68,2.68,0,0,1-2.21,1c-1.35-.12-1.28-.87-1.28-.87l-.19-3.65Z"/><path class="cls-6" d="M93.38,49.91s-2.29,3.49-2.62,2.93a6.55,6.55,0,0,1-.15-2.43Z"/><path class="cls-5" d="M86.74,52.16h0c3.44.33,8.28-1.76,8.6-5.21l.53-5.65a6.31,6.31,0,0,0-5.68-6.85h0a6.31,6.31,0,0,0-6.85,5.68l-.53,5.65C82.49,49.23,83.29,51.84,86.74,52.16Z"/><path class="cls-7" d="M93.77,44.89s1.86-1.44,2.27-.07-1.21,3.19-2.21,3"/><path class="cls-8" d="M94,46.35s.54-.77,1-.9"/><path class="cls-9" d="M87.39,45.36c-.06.58.16,1.07.47,1.09s.62-.41.67-1-.16-1.06-.47-1.09S87.44,44.79,87.39,45.36Z"/><path class="cls-9" d="M83.18,45.18c-.06.58.16,1.06.47,1.09s.62-.41.67-1-.16-1.06-.48-1.09S83.23,44.61,83.18,45.18Z"/><path class="cls-10" d="M84.86,49.05l1.48.05a.82.82,0,0,1-.86.82C84.64,49.9,84.86,49.05,84.86,49.05Z"/><path class="cls-11" d="M87.36,44.05s1.72.52,1.86,0-1.11-1.19-1.78-.88S87.36,44.05,87.36,44.05Z"/><path class="cls-11" d="M84.68,43.78s-1.79.19-1.83-.32,1.31-1,1.91-.53S84.68,43.78,84.68,43.78Z"/><path class="cls-12" d="M81.92,45.07a1.68,1.68,0,1,0,1.83-1.81A1.84,1.84,0,0,0,81.92,45.07Z"/><path class="cls-13" d="M82,45.06a1.59,1.59,0,1,0,3.12.29A1.59,1.59,0,1,0,82,45.06Z"/><path class="cls-13" d="M85.67,45.23a1.6,1.6,0,1,0,1.74-1.72A1.75,1.75,0,0,0,85.67,45.23Z"/><path class="cls-12" d="M85.61,45.24a1.67,1.67,0,1,0,1.82-1.82A1.83,1.83,0,0,0,85.61,45.24Z"/><line class="cls-12" x1="85.21" y1="45.38" x2="85.56" y2="45.41"/><line class="cls-12" x1="88.85" y1="45.31" x2="93.85" y2="44.84"/><path class="cls-14" d="M85.1,46.82s.13-.21.26-.2.2.29.2.29"/><path class="cls-4" d="M92.75,60.3l2.81,1.41a.54.54,0,0,1,.29.59l-.36,2a.55.55,0,0,1-.77.39L92,63.35a.55.55,0,0,1-.31-.58L92,60.71A.55.55,0,0,1,92.75,60.3Z"/><path class="cls-15" d="M92.54,60.3l2.81,1.41a.55.55,0,0,1,.29.59l-.37,2a.54.54,0,0,1-.76.39l-2.77-1.3a.54.54,0,0,1-.3-.58l.32-2.06A.54.54,0,0,1,92.54,60.3Z"/><path class="cls-11" d="M84.1,70.48s8.75,5.32,10.47,5.15a3.48,3.48,0,0,0,2.23-.77s.17,4.55-2.23,4.63-10-4.29-10.39-5.92A9.08,9.08,0,0,1,84.1,70.48Z"/><path class="cls-11" d="M92.94,77.35s0,34.84.6,34.76,3-35.37,3-35.37l-3.26.35"/><path class="cls-16" d="M93.62,111.25s-3.26,2.58-1.71,2.58,1.63-1.72,1.63-1.72Z"/><path class="cls-11" d="M85.13,73.31,88.39,73s-2.41,35.28-3,35.36-.6-34.76-.6-34.76Z"/><path class="cls-16" d="M85.47,107.47s-3.26,2.58-1.72,2.58,1.63-1.72,1.63-1.72Z"/><path class="cls-17" d="M91.3,54.58l1.45,2s2,.37,3-.83,1-1.53,1-1.53l-2-1.74S92.67,54.5,91.3,54.58Z"/><path class="cls-17" d="M91.3,54.58s-.74-1.33-.66-1.62a10,10,0,0,1-1.62.79l-.36.11s.28,1.09.74,1.38.58.25.58.25Z"/><polygon class="cls-16" points="91.3 54.58 89.98 55.49 90.93 57.15 92.75 56.57 91.3 54.58"/><polygon class="cls-16" points="90.92 56.78 86.94 69.23 88.02 72.05 89.88 70.27 91.3 56.53 90.92 56.78"/><rect class="cls-15" x="93.73" y="60.14" width="0.56" height="1.17" transform="translate(24.1 -26.68) rotate(18.49)"/><g class="cls-18"><path class="cls-9" d="M106.66,119.27l14.18,1.78c-9.9,5.75-29.83,9.93-39.79,4.18l-20-11.53c-9.95-5.75-10-15.06-.12-20.81l10.33,6c-1.25,3.33.37,7,4.85,9.53l14,8.11C94.66,119.08,100.92,120,106.66,119.27Z"/></g><g class="cls-19"><g class="cls-19"><g class="cls-20"><g class="cls-19"><path class="cls-21" d="M76.09,65.89l-.08,28a6.12,6.12,0,0,0-.28,1l.08-28a6.12,6.12,0,0,1,.28-1"/><path class="cls-22" d="M75.81,66.88l-.08,28a5.91,5.91,0,0,0-.12,1l.08-28a6,6,0,0,1,.12-1"/><path class="cls-23" d="M75.69,67.91l-.08,28v.16l.08-28v-.16"/></g></g></g><path class="cls-11" d="M119.53,121.38l.47-.22c.58-.28,1.16-.58,1.71-.9l.08-28c-.55.32-1.13.62-1.71.9l-.47.22c-.53.25-1.07.48-1.63.7l-.21.08q-.9.35-1.83.63l-1.3.37c-.34.09-.67.19-1,.27s-.93.21-1.4.3-.68.15-1,.21l-.43.07c-.58.09-1.16.18-1.75.25l-.52.06c-.68.07-1.37.13-2.06.17l-.38,0-1.4,0h-1.39l-1.16,0c-.43,0-.86,0-1.29-.07l-1.18-.09-1.27-.15c-.38,0-.75-.1-1.13-.16l-1.35-.23-1.4-.28-.33-.08c-.64-.15-1.28-.33-1.91-.51l-.54-.17c-.52-.16-1-.34-1.54-.53l-.44-.16q-.69-.27-1.35-.57c-.22-.1-.44-.18-.66-.29-.64-.3-1.26-.62-1.86-1l-20-11.53c-5-2.89-7.51-6.69-7.5-10.48l-.08,28c0,3.79,2.5,7.59,7.51,10.48l20,11.53c.6.35,1.22.67,1.86,1l.66.29c.38.17.75.34,1.15.5l.2.07.44.16c.51.19,1,.37,1.54.53l.54.17.36.11c.51.14,1,.28,1.56.4l.32.08.77.17.63.11,1.35.23.54.1.6.06c.42.06.84.1,1.26.14.21,0,.41.06.61.07l.57,0,1.29.07.64,0h.52c.46,0,.93,0,1.39,0h.7l.7,0,.38,0c.58,0,1.16-.08,1.73-.13l.33,0,.52-.06c.59-.07,1.17-.16,1.75-.25l.44-.07.2,0c.28,0,.55-.12.82-.18.47-.1.94-.19,1.4-.3s.67-.18,1-.27l1.3-.37.28-.08c.53-.17,1-.35,1.55-.55l.21-.09C118.46,121.86,119,121.62,119.53,121.38Z"/><path class="cls-9" d="M111.47,86.31l10.32,6c-9.89,5.75-26,5.75-35.93,0l-20-11.53c-9.95-5.75-10-15.07-.11-20.81l10.32,6c-1.24,3.33.38,7,4.86,9.53l14,8.11C99.47,86.11,105.72,87,111.47,86.31Z"/><path class="cls-24" d="M82.41,112.47,66,103a2.78,2.78,0,0,1-1.39-2.4V88.78a2.78,2.78,0,0,1,4.17-2.41l16.43,9.49a2.78,2.78,0,0,1,1.38,2.4v11.8A2.77,2.77,0,0,1,82.41,112.47Z"/><path class="cls-25" d="M80.35,113.79,63.92,104.3a2.76,2.76,0,0,1-1.39-2.4V90.1a2.78,2.78,0,0,1,4.17-2.4l16.43,9.48a2.8,2.8,0,0,1,1.38,2.41v11.79A2.77,2.77,0,0,1,80.35,113.79Z"/><path class="cls-10" d="M78.45,111.22l-13.34-7.7a2.27,2.27,0,0,1-1.13-2V92a2.25,2.25,0,0,1,3.38-2l13.35,7.7a2.28,2.28,0,0,1,1.12,2v9.58A2.25,2.25,0,0,1,78.45,111.22Z"/></g><path class="cls-24" d="M112,85.07l7,4a1.76,1.76,0,0,1-.22,3.16c-9.91,4.18-23.88,3.67-32.86-1.52l-20-11.53c-9.62-5.56-10-14.45-1.06-20.23a1.8,1.8,0,0,1,1.86-.06l8.21,4.74a1.77,1.77,0,0,1,.89,1.82c-.54,3,1.19,6.11,5.17,8.41L95,82c4.34,2.5,10.33,3.45,15.92,2.85A1.7,1.7,0,0,1,112,85.07Z"/><path class="cls-26" d="M119.34,89.41a1.63,1.63,0,0,1-.62.46c-9.91,4.17-23.88,3.66-32.86-1.52l-20-11.54c-4.46-2.57-6.93-5.87-7.41-9.24-.58,4.16,1.89,8.45,7.41,11.64l20,11.53c9,5.19,23,5.7,32.86,1.52A1.77,1.77,0,0,0,119.34,89.41Z"/><path class="cls-26" d="M75.71,64.65q0,.33.09.66A1.47,1.47,0,0,0,75.71,64.65Z"/><path class="cls-4" d="M82.37,52.81s-2,9.41-5.43,8.23-4-6.84-4-6.84-.4,1-1,1a13.49,13.49,0,0,1-1.39-.1s2.82,8.52,6.34,8.32S83.38,58,83.38,58Z"/><path class="cls-17" d="M70.6,55.09a2,2,0,0,1,1-.74A2.34,2.34,0,0,1,73,54.2s0,1.09-.6,1.24A3.86,3.86,0,0,1,70.6,55.09Z"/><path class="cls-5" d="M72.53,54.45s-.19-1.88-1.38-1.73-.05,2.18-.05,2.18A.92.92,0,0,0,72.53,54.45Z"/><path class="cls-27" d="M83.84,64.81s2.42,5.91,7.93,6.79,6.17-.26,6.17-.26Z"/><path class="cls-17" d="M82.82,64.24s-.16-1.75.77-2.11S84.72,62,84.72,62s.82,1.39,0,1.85A4,4,0,0,1,82.82,64.24Z"/><path class="cls-5" d="M85,62.47s-1.35-1.63-2.29-1.22.54,2.79.54,2.79S85.19,63.64,85,62.47Z"/><path class="cls-4" d="M101.18,56.16s1.9,15-2.31,15.9-16.05-7.82-16.05-7.82a6.77,6.77,0,0,0,1.49-.82A1.43,1.43,0,0,0,84.72,62s9.52,6.89,12,6.68S97.89,60,97.89,60,99.33,56.06,101.18,56.16Z"/><path class="cls-11" d="M112,89.27h0a1,1,0,0,1-1-1V41.39a1,1,0,0,1,1-1h0a1,1,0,0,1,1,1V88.25A1,1,0,0,1,112,89.27Z"/><path class="cls-11" d="M68.83,64.72h0a1,1,0,0,1-1-1V16.84a1,1,0,0,1,1-1h0a1,1,0,0,1,1,1V63.71A1,1,0,0,1,68.83,64.72Z"/><g class="cls-19"><path class="cls-11" d="M113.94,26.7,69.28.39A1.9,1.9,0,0,0,67.34.18L63.67,2.27a1.9,1.9,0,0,1,1.94.21l44.66,26.31A6,6,0,0,1,113,33.53l-.16,13.7A1.91,1.91,0,0,1,112,49l3.67-2.09a1.91,1.91,0,0,0,.82-1.75l.16-13.7A6,6,0,0,0,113.94,26.7Z"/><path class="cls-24" d="M110.27,28.79A6,6,0,0,1,113,33.53l-.16,13.7c0,1.74-1.26,2.43-2.76,1.54L65.37,22.46a6,6,0,0,1-2.68-4.75L62.85,4c0-1.73,1.26-2.42,2.76-1.53Z"/></g><g class="cls-19"><path class="cls-11" d="M113.94,26.7,69.28.39A1.9,1.9,0,0,0,67.34.18L63.67,2.27a1.9,1.9,0,0,1,1.94.21l44.66,26.31A6,6,0,0,1,113,33.53l-.16,13.7A1.91,1.91,0,0,1,112,49l3.67-2.09a1.91,1.91,0,0,0,.82-1.75l.16-13.7A6,6,0,0,0,113.94,26.7Z"/><path class="cls-28" d="M110.27,28.79A6,6,0,0,1,113,33.53l-.16,13.7c0,1.74-1.26,2.43-2.76,1.54L65.37,22.46a6,6,0,0,1-2.68-4.75L62.85,4c0-1.73,1.26-2.42,2.76-1.53Z"/></g><path class="cls-24" d="M107,28.1a5.46,5.46,0,0,1,2.44,4.31l-.15,12.47c0,1.58-1.14,2.21-2.51,1.4l-40.64-24A5.46,5.46,0,0,1,63.68,18l.14-12.47c0-1.57,1.15-2.2,2.51-1.4Z"/><path class="cls-10" d="M105.72,28.72A5.46,5.46,0,0,1,108.16,33L108,45.51c0,1.58-1.14,2.2-2.51,1.4L64.87,23a5.46,5.46,0,0,1-2.44-4.32l.14-12.47c0-1.58,1.14-2.2,2.51-1.4Z"/><path class="cls-28" d="M114.5,80.94l-8.59-4.24a2,2,0,0,1-1.13-1.85l.39-21.63a2,2,0,0,1,2.92-1.78l8.59,4.23a2,2,0,0,1,1.13,1.85l-.38,21.64A2,2,0,0,1,114.5,80.94Z"/><path class="cls-10" d="M113.49,81.75l-8.6-4.23a2,2,0,0,1-1.13-1.86L104.15,54a2,2,0,0,1,2.93-1.78l8.59,4.23a2,2,0,0,1,1.13,1.86L116.41,80A2,2,0,0,1,113.49,81.75Z"/><path class="cls-11" d="M145.31,129.15a13.21,13.21,0,0,1-11.95,0c-3.3-1.91-3.29-5,0-6.9a13.21,13.21,0,0,1,11.95,0C148.62,124.16,148.62,127.25,145.31,129.15Z"/><path class="cls-24" d="M145.32,128.51a13.23,13.23,0,0,1-12,0c-3.3-1.91-3.29-5,0-6.9a13.21,13.21,0,0,1,11.95,0C148.62,123.52,148.62,126.61,145.32,128.51Z"/><path class="cls-11" d="M141.46,126.69a4.4,4.4,0,0,1-4,0,1.22,1.22,0,0,1,0-2.31,4.42,4.42,0,0,1,4,0A1.21,1.21,0,0,1,141.46,126.69Z"/><path class="cls-29" d="M139.57,126h0a1,1,0,0,1-1-1V78.15a1,1,0,0,1,1-1h0a1,1,0,0,1,1,1V125A1,1,0,0,1,139.57,126Z"/><g class="cls-19"><polygon class="cls-30" points="148.88 54.16 150.79 53.06 150.6 118.69 148.7 119.8 148.88 54.16"/><polygon class="cls-9" points="127.52 41.83 129.43 40.72 150.79 53.06 148.88 54.16 127.52 41.83"/><polygon class="cls-31" points="148.88 54.16 148.7 119.8 127.34 107.46 127.52 41.83 148.88 54.16"/><polygon class="cls-10" points="147.67 57.13 147.5 116.39 128.21 105.26 128.38 46 147.67 57.13"/></g><path class="cls-3" d="M13.05,105.31c-7.13,4.11-7.13,10.78,0,14.9s18.68,4.11,25.8,0,7.12-10.79,0-14.9S20.17,101.2,13.05,105.31Z"/><path class="cls-24" d="M5.4,104.08c0,10.22,12.62,14.39,22.83,14.39s15.53-6.69,15.53-16.9-12.16-21-22.38-21S5.4,93.87,5.4,104.08Z"/><path class="cls-32" d="M21.38,80.57c-4.76,0-8.55,2.89-11.25,7a25.18,25.18,0,0,0,8.71,12.33c8.18,6.45,18.13,11.57,23.8,7.14a2.3,2.3,0,0,0,.85-1.61c.09-1.37.27-3.83.27-3.87C43.76,91.36,31.6,80.57,21.38,80.57Z"/><path class="cls-24" d="M43,97.28s-3.24-3.62-7.62-1.43-7.91,4.67-9.63,4,2.95-1.62,5.91-4.2S40.28,92.52,43,97.28Z"/><path class="cls-32" d="M5.77,101.29s8.29,10.29,17,10.58-2.29,2.28-7-.38S5.77,101.29,5.77,101.29Z"/><path class="cls-33" d="M64.82,57.05,75.06,63c.65.37,1.19,0,1.19-.9V50.37a2.87,2.87,0,0,0-1.19-2.27L64.82,42.19c-.65-.38-1.18,0-1.18.9V54.78A2.86,2.86,0,0,0,64.82,57.05Z"/><path class="cls-34" d="M63.78,58,74,64c.65.37,1.19,0,1.19-.9V51.36A2.87,2.87,0,0,0,74,49.09L63.78,43.18c-.65-.38-1.18,0-1.18.9V55.77A2.86,2.86,0,0,0,63.78,58Z"/></g></g></svg>