<svg xmlns="http://www.w3.org/2000/svg" viewBox="0 0 156.08 58.15"><defs><style>.cls-1{isolation:isolate;}.cls-2{fill:#fff;}.cls-3,.cls-4{fill:#f7941d;}.cls-4{opacity:0.5;mix-blend-mode:multiply;}</style></defs><title>Recurso 2</title><g class="cls-1"><g id="Capa_2" data-name="Capa 2"><g id="OBJECTS"><path class="cls-2" d="M86.67,55.91a9.7,9.7,0,0,1-1.29-5.14,12.15,12.15,0,0,1,.24-2.41l-7,6.48A29.53,29.53,0,0,0,86.67,55.91Z"/><path class="cls-2" d="M79.06,8.4H67.92a.58.58,0,0,0-.49.88l4.1,6.83,4.93-.29,10.65-.63L80.4,8.93A2,2,0,0,0,79.06,8.4Z"/><path class="cls-2" d="M27.13,28a12.62,12.62,0,0,1,7.79-2.46,19.62,19.62,0,0,1,6.09,1,3.43,3.43,0,0,1,2,4.77c-1.1,2.23-3.48,4.45-7.06,6.58-.55.33-1.1.61-1.67.88a10.72,10.72,0,0,0,1.66.54A165.6,165.6,0,0,0,61.17,42.6l4.63-7.71a3.42,3.42,0,0,1,1.78-1.44A45,45,0,0,1,82.3,30.94a40.64,40.64,0,0,1,12.68,2,3.28,3.28,0,0,1,2.2,2.44,3.34,3.34,0,0,1-1,3.15l-5.33,5c11.93,0,22-.36,26.87-.52,15.92-.55,12.66-10.82,8.74-12.4s-8.21-2.54-10.91-7.42a13.36,13.36,0,0,0-12-6.72l-.92,0L76.59,18,39.45,20.16l-6.14-9.59a6.56,6.56,0,0,0-5.51-3h-.39l-9.18.54a2.07,2.07,0,0,0-1.72,3c2.14,4.07,6.21,11.77,9.59,18l.39-.49A3.81,3.81,0,0,1,27.13,28Z"/><path class="cls-2" d="M34.79,36.05c4-2.41,5.62-4.44,6.24-5.69a1.26,1.26,0,0,0-.71-1.76,17.29,17.29,0,0,0-5.4-.93,10.52,10.52,0,0,0-6.49,2,1.88,1.88,0,0,0-.25.24l-4.39,5.51a1.69,1.69,0,0,0,1.09,2.72,14.88,14.88,0,0,0,2,.13A15.31,15.31,0,0,0,34.79,36.05Z"/><path class="cls-2" d="M94.72,36.92a1.17,1.17,0,0,0-.42-2,38.48,38.48,0,0,0-12-1.85,42.53,42.53,0,0,0-14,2.4,1.21,1.21,0,0,0-.63.51L56.12,55.18a2,2,0,0,0,1.68,3H70.44a3.86,3.86,0,0,0,2.62-1Z"/><path class="cls-2" d="M90,45.74c-1.34,0-2.43,2.25-2.43,5s1.09,5,2.43,5,2.44-2.25,2.44-5S91.32,45.74,90,45.74Z"/><path class="cls-3" d="M115.57,23.13a12.25,12.25,0,0,0-.82-1.25c-.12.09-2.47,1.92-10.56,1.67a1.49,1.49,0,0,0-1.26,2.37,8.85,8.85,0,0,0,5.14,3.62c2.91.53,10.31,0,12.28-1.59A12.15,12.15,0,0,1,115.57,23.13Z"/><rect class="cls-3" x="49.53" y="25.81" width="3.54" height="4.8" rx="0.9"/><rect class="cls-3" x="59.37" y="25.81" width="3.54" height="4.8" rx="0.9"/><rect class="cls-3" x="69.21" y="25.81" width="3.54" height="4.8" rx="0.9"/><rect class="cls-3" x="79.06" y="25.81" width="3.54" height="4.8" rx="0.9"/><rect class="cls-3" x="88.9" y="25.81" width="3.54" height="4.8" rx="0.9"/><path class="cls-2" d="M132.72,17.34h-17a.65.65,0,1,1,0-1.29h17a.65.65,0,0,1,0,1.29Z"/><path class="cls-2" d="M48.89,55.27H30a.64.64,0,0,1-.64-.64A.64.64,0,0,1,30,54H48.89a.64.64,0,0,1,.64.64A.64.64,0,0,1,48.89,55.27Z"/><path class="cls-2" d="M18,25.81H7.26a.65.65,0,1,1,0-1.29H18a.65.65,0,0,1,0,1.29Z"/><path class="cls-2" d="M109.16,9H89.77a.64.64,0,0,1,0-1.28h19.39a.64.64,0,0,1,.64.64A.64.64,0,0,1,109.16,9Z"/><path class="cls-2" d="M139.34,46.27h-7.15a.65.65,0,0,1,0-1.29h7.15a.65.65,0,0,1,0,1.29Z"/><path class="cls-2" d="M11.69,12.9H4.54a.65.65,0,0,1,0-1.29h7.15a.65.65,0,0,1,0,1.29Z"/><path class="cls-2" d="M28,1.28H15.82a.64.64,0,0,1-.64-.64A.64.64,0,0,1,15.82,0H28a.65.65,0,0,1,.65.64A.64.64,0,0,1,28,1.28Z"/><path class="cls-2" d="M60.58,10.33H38.48a.65.65,0,1,1,0-1.29h22.1a.65.65,0,0,1,0,1.29Z"/><path class="cls-2" d="M143,28.07H132.38a.65.65,0,0,1,0-1.29H143a.65.65,0,0,1,0,1.29Z"/><path class="cls-2" d="M118.47,51.41H101.12a.64.64,0,0,1-.64-.64.64.64,0,0,1,.64-.64h17.35a.64.64,0,0,1,.64.64A.64.64,0,0,1,118.47,51.41Z"/><path class="cls-4" d="M33.78,46.58,31.5,45.5a5.45,5.45,0,0,0-1.71-4,5,5,0,0,0-7.25-6.42,9,9,0,0,0-14.84,5A5.46,5.46,0,0,0,3,45.5c0,.09,0,.18,0,.27l-2.45.77a.77.77,0,0,0,.23,1.51H33.45A.77.77,0,0,0,33.78,46.58Z"/><path class="cls-4" d="M155.58,15.51,150,14.15h0a6.69,6.69,0,0,0-5.4-4v0a5.23,5.23,0,0,0-5.23-5.23,5.38,5.38,0,0,0-1.71.29,6.69,6.69,0,0,0-13.2,1.52c0,.07,0,.13,0,.19A6.64,6.64,0,0,0,117,10.31a6.25,6.25,0,0,0-1.57-.2,6.71,6.71,0,0,0-6.25,4.3l-5.34,1.09a.66.66,0,0,0,.13,1.3h51.44A.65.65,0,0,0,155.58,15.51Z"/></g></g></g></svg>