<svg xmlns="http://www.w3.org/2000/svg" viewBox="0 0 102.15 40.49"><defs><style>.cls-1{isolation:isolate;}.cls-2{fill:#fff;}.cls-3{fill:#00a79d;opacity:0.5;mix-blend-mode:multiply;}</style></defs><title>Recurso 1</title><g class="cls-1"><g id="Capa_2" data-name="Capa 2"><g id="OBJECTS"><path class="cls-2" d="M46.88,31.23l-2.52-2.47a.83.83,0,0,0-1.34.29L41.2,33.86l-.33.87a.81.81,0,0,0,1.22,1l4.68-3.2A.81.81,0,0,0,46.88,31.23Z"/><path class="cls-2" d="M78.46,6.21,24.13,16.94a.82.82,0,0,0-.07,1.59l11.48,3.24a.76.76,0,0,0,.47,0l25.13-8.08a.82.82,0,0,1,.7,1.46L45.21,26.05a.81.81,0,0,0-.13,1.26L55.24,37.4a.81.81,0,0,0,1.22-.08L79.26,7.51A.82.82,0,0,0,78.46,6.21Z"/><path class="cls-2" d="M57.38,16l-20.08,7a.81.81,0,0,0-.53.89l1.43,9.2a.81.81,0,0,0,1.56.16l2.64-6.95.13-.35.39-.24,14.7-9.22A.28.28,0,0,0,57.38,16Z"/><path class="cls-2" d="M77.51,40.49h-11a.41.41,0,1,1,0-.81h11a.41.41,0,0,1,0,.81Z"/><path class="cls-3" d="M101.86,35l-1.44-.68a3.43,3.43,0,0,0-1.09-2.51,3.2,3.2,0,0,0-2.27-4.51,3.24,3.24,0,0,0-2.33.43,5.73,5.73,0,0,0-9.41,3.17,3.45,3.45,0,0,0-3,3.42c0,.06,0,.12,0,.17L80.77,35a.49.49,0,0,0,.15,1h20.73A.49.49,0,0,0,101.86,35Z"/><path class="cls-3" d="M33.16,9.84,29.64,9h0a4.26,4.26,0,0,0-3.43-2.54v0A3.31,3.31,0,0,0,22.89,3.1a3.22,3.22,0,0,0-1.08.18,4.25,4.25,0,0,0-8.38,1s0,.08,0,.11a4.6,4.6,0,0,0-1-.11A4.25,4.25,0,0,0,8.69,6.54a4.15,4.15,0,0,0-1-.12,4.24,4.24,0,0,0-4,2.72l-3.4.7a.41.41,0,0,0,.09.82H33.06A.42.42,0,0,0,33.16,9.84Z"/><path class="cls-2" d="M89.36,16.42H78.56a.41.41,0,0,1,0-.81h10.8a.41.41,0,0,1,0,.81Z"/><path class="cls-2" d="M25.58,36.32H13.63a.41.41,0,0,1-.41-.41.41.41,0,0,1,.41-.41H25.58a.41.41,0,0,1,.41.41A.41.41,0,0,1,25.58,36.32Z"/><path class="cls-2" d="M28.3,25.33H5.21a.41.41,0,0,1-.41-.41.41.41,0,0,1,.41-.41H28.3a.41.41,0,0,1,.41.41A.41.41,0,0,1,28.3,25.33Z"/><path class="cls-2" d="M61.11,6.6H48.8a.41.41,0,0,1,0-.81H61.11a.41.41,0,0,1,0,.81Z"/><path class="cls-2" d="M73.19,30.13H68.66a.41.41,0,1,1,0-.81h4.53a.41.41,0,1,1,0,.81Z"/><path class="cls-2" d="M18.17,18.2h-11a.4.4,0,0,1-.4-.41.41.41,0,0,1,.4-.41h11a.41.41,0,0,1,.4.41A.4.4,0,0,1,18.17,18.2Z"/><path class="cls-2" d="M98.3,8.55h-14a.41.41,0,0,1,0-.81h14a.41.41,0,1,1,0,.81Z"/><path class="cls-2" d="M96.17,23.23H81.29a.41.41,0,0,1-.41-.41.42.42,0,0,1,.41-.41H96.17a.41.41,0,0,1,.41.41A.41.41,0,0,1,96.17,23.23Z"/></g></g></g></svg>